<svg version="1.1" id="Layer_1" xmlns="http://www.w3.org/2000/svg" xmlns:xlink="http://www.w3.org/1999/xlink" x="0px" y="0px"
	 width="100%" viewBox="0 0 500 500" enable-background="new 0 0 500 500" xml:space="preserve">
<path fill="#000000" opacity="1.000000" stroke="none" 
	d="
M267.000000,501.000000 
	C178.000015,501.000000 89.500046,501.000000 1.000047,501.000000 
	C1.000032,334.333405 1.000032,167.666794 1.000016,1.000137 
	C167.666565,1.000091 334.333130,1.000091 500.999756,1.000046 
	C500.999847,167.666519 500.999847,334.333038 500.999939,500.999786 
	C423.166656,501.000000 345.333344,501.000000 267.000000,501.000000 
M471.000000,271.000000 
	C471.000000,271.000000 471.043427,270.962006 470.904327,270.462280 
	C470.615051,270.295166 470.325806,270.128021 470.000000,270.000000 
	C470.000000,270.000000 470.038391,269.962341 469.903870,269.463257 
	C469.615906,269.295380 469.327942,269.127502 469.000000,268.998779 
	C469.000000,268.998779 469.040283,268.956482 468.920013,268.448822 
	C468.627899,268.285126 468.335785,268.121429 468.009918,267.956940 
	C468.009918,267.956940 468.030823,267.929688 467.828857,267.350159 
	C467.247040,267.211304 466.665253,267.072418 466.011078,266.194977 
	C460.338898,262.524475 454.666687,258.853973 448.343140,254.861664 
	C441.251129,251.554367 434.159088,248.247086 426.747650,244.292068 
	C416.196716,239.181992 405.645752,234.071915 394.803223,228.325989 
	C391.699493,225.881897 388.054688,223.880417 385.612518,220.895142 
	C381.428253,215.780212 377.996002,210.050079 373.983734,204.192490 
	C371.429443,210.054169 370.664154,216.247696 372.956451,222.714981 
	C376.454407,232.583832 383.709808,239.421280 392.122528,244.880814 
	C398.708862,249.155106 405.972290,252.386063 413.001587,256.005829 
	C413.001587,256.005829 412.926208,256.070709 413.207123,256.719818 
	C415.777588,257.822418 418.348022,258.925049 420.925690,260.077484 
	C420.925690,260.077484 420.975922,260.081238 421.031860,260.587158 
	C421.318817,260.683319 421.605804,260.779480 422.439789,261.016907 
	C422.620728,261.069183 422.801636,261.121429 423.122803,261.637360 
	C423.122803,261.637360 423.504150,261.939423 423.504150,261.939423 
	C423.504150,261.939423 423.981293,261.842010 424.633118,262.131531 
	C426.720398,263.093140 428.807709,264.054749 431.221588,265.663757 
	C437.428894,269.110596 443.636169,272.557404 450.147797,276.665192 
	C453.758514,279.049194 457.369263,281.433167 461.626343,284.097137 
	C464.249969,286.722473 466.990631,289.242188 469.473328,291.994629 
	C474.995941,298.117249 478.786835,305.224091 481.081848,313.148560 
	C481.856506,315.823486 482.822906,318.442871 483.937134,321.796173 
	C491.857788,310.071716 487.151520,284.156830 472.062225,271.965576 
	C472.062225,271.965576 472.049316,271.963348 471.909180,271.460999 
	C471.618439,271.292633 471.327728,271.124237 471.000000,271.000000 
M418.040375,197.063919 
	C418.040375,197.063919 418.015228,197.132370 418.653351,197.091339 
	C419.148285,196.763443 419.643219,196.435547 420.066498,196.059174 
	C420.066498,196.059174 420.021820,196.133286 420.661743,196.109283 
	C421.149902,195.778519 421.638062,195.447739 422.134247,195.213959 
	C422.134247,195.213959 422.229614,195.233170 422.918213,195.154037 
	C424.962097,193.851883 427.005981,192.549728 429.760345,191.072372 
	C434.576996,188.086136 439.393677,185.099899 444.773438,181.776672 
	C446.532898,180.247818 448.292389,178.718979 450.752625,177.106903 
	C453.193451,174.822113 455.634277,172.537323 458.550446,169.978638 
	C458.679626,169.658585 458.808807,169.338516 459.064331,168.658264 
	C459.064331,168.658264 459.083252,168.277023 459.609558,168.023972 
	C459.809479,167.700348 460.009399,167.376724 460.638306,166.856583 
	C460.890747,166.651321 461.063446,166.392776 461.750092,165.695892 
	C466.118622,157.860184 468.097412,149.858627 463.798004,141.622299 
	C461.808197,145.388428 459.808990,149.172379 457.235504,153.263245 
	C454.792084,155.451614 452.348694,157.639984 449.408600,160.102386 
	C448.924286,160.672913 448.439972,161.243454 447.290741,161.930328 
	C446.780060,162.308823 446.269348,162.687332 445.206146,163.345917 
	C443.773041,164.507843 442.339935,165.669785 440.201965,166.936264 
	C436.803680,168.964142 433.405426,170.992020 429.554474,173.090836 
	C429.263916,173.229187 429.058594,173.447647 428.275848,173.868530 
	C427.775665,174.277008 427.275452,174.685486 426.186035,175.404343 
	C422.755554,177.258179 419.325043,179.112030 415.435730,180.915268 
	C415.435730,180.915268 414.992706,180.785736 414.981323,179.985703 
	C416.990540,170.455765 418.921631,160.908539 421.024475,151.399307 
	C426.145233,128.243011 431.467255,105.130104 436.383789,81.930969 
	C437.126831,78.424805 437.136902,74.108376 435.743195,70.931282 
	C432.065735,62.548477 425.172424,58.054501 415.807465,58.050419 
	C361.138153,58.026588 306.468842,58.066715 251.799652,57.990437 
	C248.384750,57.985668 247.629837,60.125076 247.071930,62.550941 
	C245.397308,69.832359 243.868317,77.147209 242.272202,84.446770 
	C238.525696,101.580864 234.740082,118.706474 231.031479,135.848770 
	C226.464203,156.960037 222.006104,178.095001 217.411514,199.200272 
	C214.026657,214.748627 210.412888,230.247314 207.054016,245.801147 
	C201.774399,270.249329 196.976807,294.808411 191.251785,319.150421 
	C188.813553,329.517548 199.811859,341.235199 208.615952,341.172913 
	C263.763519,340.782715 318.915497,340.902130 374.065094,341.102661 
	C378.573303,341.119049 380.143005,339.430298 380.988434,335.573242 
	C384.917114,317.649048 389.044891,299.767761 392.859833,281.819794 
	C393.738770,277.684570 393.665741,273.347015 394.812866,269.002045 
	C398.525452,270.716583 402.238068,272.431122 406.238800,274.776489 
	C412.502655,278.359894 418.705261,282.057037 425.056274,285.478729 
	C428.231781,287.189575 431.678192,288.397522 435.646820,290.165039 
	C438.466156,292.628998 441.199738,295.201782 444.136810,297.516388 
	C445.910461,298.914062 448.000092,299.910797 450.100372,301.585541 
	C450.392944,301.754120 450.685516,301.922699 451.184143,302.665314 
	C452.092194,303.448486 453.000244,304.231659 454.175079,305.649261 
	C463.731293,316.548492 472.218079,328.057892 474.719788,343.364685 
	C484.691895,330.986359 480.641693,301.565704 461.019684,288.979431 
	C461.019684,288.979431 461.076813,288.949615 460.988708,288.262268 
	C460.341095,287.814423 459.693451,287.366577 459.016541,286.980225 
	C459.016541,286.980225 459.083801,286.969788 458.928619,286.458466 
	C458.621552,286.363129 458.314453,286.267792 457.570587,286.019745 
	C457.570587,286.019745 457.111145,285.964539 456.994598,285.348969 
	C456.658752,284.957977 456.322876,284.567017 455.344147,283.856659 
	C450.260498,280.888397 445.176880,277.920105 439.805481,274.301514 
	C430.884949,269.844788 421.964417,265.388031 412.730225,260.288239 
	C399.410645,253.740112 386.685150,246.333221 376.491455,235.266708 
	C376.491455,235.266708 376.519043,235.233658 376.211243,234.824127 
	C375.823212,234.520889 375.435150,234.217636 374.995300,233.221802 
	C373.999969,231.774963 373.004639,230.328110 371.978180,228.285767 
	C371.674042,227.842499 371.369904,227.399231 370.971130,226.460876 
	C370.917114,226.301773 370.863098,226.142685 370.951782,225.378845 
	C370.655945,224.915085 370.360107,224.451324 370.061951,223.941666 
	C370.061951,223.941666 370.016724,223.933487 369.978058,223.136703 
	C369.665894,222.132858 369.353699,221.129028 369.041534,220.125168 
	C368.330322,220.587265 367.354431,220.884979 366.949341,221.537186 
	C363.323364,227.375381 363.502991,243.430969 369.988495,247.018021 
	C369.988495,247.018021 369.955444,247.059296 370.022614,247.708115 
	C370.329376,249.138641 370.636139,250.569168 370.273376,251.804611 
	C357.909637,243.978531 345.545898,236.152466 332.737518,228.044937 
	C330.692719,236.654739 328.773407,244.142151 327.155823,251.694168 
	C325.024292,261.645569 323.129700,271.647705 320.416199,282.044220 
	C320.252991,283.372864 320.089783,284.701538 320.029816,286.032990 
	C320.029816,286.032990 320.035370,285.929840 319.093842,285.995483 
	C302.728424,285.941864 286.362976,285.888245 270.332123,285.134857 
	C270.721375,283.421722 271.114349,281.709442 271.499207,279.995361 
	C275.658142,261.472839 279.869324,242.961899 283.959106,224.424164 
	C288.293396,204.778152 292.526031,185.109665 296.776886,165.445328 
	C300.545898,148.010178 304.279083,130.567261 308.963715,113.033203 
	C324.983704,113.111763 341.003723,113.190323 357.008331,114.093071 
	C355.337799,123.022247 353.955109,132.020447 351.839752,140.842972 
	C351.105194,143.906738 352.155182,144.731766 354.268188,146.074783 
	C366.031830,153.551666 377.643555,161.268143 389.429962,168.708313 
	C396.803009,173.362579 404.392090,177.674698 411.912048,182.503906 
	C411.912048,182.503906 411.891296,182.867813 411.290741,183.242950 
	C407.678223,185.132523 404.065674,187.022095 399.763184,188.847061 
	C393.975220,191.668579 388.304657,194.780090 382.350281,197.190613 
	C379.324036,198.415741 378.506226,200.310791 379.112183,202.857773 
	C379.909607,206.209427 381.184662,209.472504 382.592316,212.622665 
	C382.770752,213.021896 385.117035,212.820251 386.240509,212.361740 
	C389.902466,210.867279 393.463226,209.124786 397.751221,207.130905 
	C403.862091,204.198257 409.972961,201.265610 416.674530,198.117325 
	C417.151917,197.776337 417.629303,197.435349 418.040375,197.063919 
M224.512848,376.056946 
	C224.401382,376.340393 224.289917,376.623871 223.914230,377.566681 
	C221.501266,379.642639 219.088303,381.718597 215.956375,384.413086 
	C219.035080,386.544312 221.407318,388.186462 224.610107,390.225220 
	C224.610107,395.440857 224.610107,400.656525 224.610107,405.669495 
	C229.367493,405.669495 233.092896,405.669495 236.666672,405.669495 
	C236.666672,395.263794 236.666672,385.230560 236.666672,374.593353 
	C232.489594,375.078674 228.704453,375.518433 224.980347,375.987549 
	C224.980347,375.987549 224.997849,375.922119 224.512848,376.056946 
M429.867676,212.028748 
	C431.260162,211.088120 432.652649,210.147491 434.763062,209.060089 
	C438.849762,206.440933 442.936462,203.821777 447.745758,201.113129 
	C451.131927,198.531372 454.518097,195.949600 458.510651,192.976746 
	C461.388367,189.675568 464.266083,186.374390 467.744507,182.701385 
	C468.581451,180.912476 469.488983,179.152771 470.243256,177.329651 
	C473.844025,168.626480 473.391144,161.777924 468.876587,155.334351 
	C467.489044,158.992462 466.172333,162.463776 464.355255,166.152817 
	C463.875885,166.687592 463.396545,167.222351 462.325745,168.068787 
	C462.152191,168.698273 461.978638,169.327774 461.240631,170.274170 
	C459.146606,172.479675 457.052582,174.685165 454.350861,177.196884 
	C450.188538,180.465881 446.026215,183.734894 441.277496,187.305496 
	C438.862671,188.895157 436.447845,190.484833 433.344543,192.241959 
	C430.856812,193.767105 428.369080,195.292267 425.193634,196.951035 
	C423.292938,198.096985 421.392212,199.242950 419.234161,200.523621 
	C419.234161,200.523621 419.229279,200.814087 418.400146,200.882050 
	C417.748962,201.232605 417.097778,201.583160 415.781525,202.016434 
	C413.975037,203.281418 412.168549,204.546402 409.650330,205.908325 
	C406.382935,207.258560 403.115509,208.608795 399.127533,210.076508 
	C395.629272,211.436951 392.109406,212.744904 388.639221,214.173553 
	C385.583282,215.431686 385.390137,217.520309 387.974457,219.234863 
	C391.834869,221.796021 395.993958,223.906921 400.640320,226.089249 
	C401.118652,225.744461 401.596985,225.399689 402.029785,225.100662 
	C402.029785,225.100662 402.087982,225.128571 402.807526,225.030380 
	C405.484283,223.774170 408.161011,222.517975 411.594696,221.175354 
	C414.094452,219.893967 416.594238,218.612579 419.792358,217.115005 
	C422.934326,215.462173 426.076263,213.809357 429.867676,212.028748 
M380.052002,383.256195 
	C379.336334,381.687988 378.620667,380.119751 377.580505,378.053131 
	C377.113892,377.699280 376.647308,377.345428 375.878418,376.387085 
	C369.632141,371.456390 362.778168,372.447296 355.922272,374.547028 
	C355.068420,374.808533 354.115967,376.451385 354.097931,377.469910 
	C353.950745,385.781372 353.912842,394.099243 354.128601,402.407684 
	C354.159760,403.607544 355.615234,405.692627 356.586914,405.801392 
	C365.147552,406.759460 376.127686,405.509674 379.954773,393.503723 
	C379.952789,393.333252 379.950775,393.162750 380.100586,392.339142 
	C380.042755,391.898041 379.984924,391.456970 380.336761,390.438354 
	C380.880463,393.114197 381.838531,395.782013 381.890381,398.467346 
	C382.046783,406.572205 383.864502,407.859344 392.815948,404.697388 
	C392.895386,395.744934 392.996552,386.792511 393.008362,377.839966 
	C393.009216,377.201874 392.355042,376.562927 391.946960,375.085388 
	C390.825806,374.724030 389.728821,374.207550 388.579254,374.028687 
	C384.077301,373.328125 381.169037,374.345978 381.881744,379.898407 
	C382.043243,381.156342 380.737549,382.602631 380.052002,383.256195 
M144.987885,385.953033 
	C144.987885,392.814484 144.987885,399.675964 144.987885,406.440063 
	C146.888077,406.216583 148.500961,406.026917 150.945358,405.974396 
	C154.893494,406.597534 156.307068,404.936157 156.048370,400.975067 
	C155.756943,396.512970 156.080048,392.014282 155.944717,387.537292 
	C155.855942,384.600555 156.425095,382.884369 159.976974,382.818420 
	C161.020447,382.799103 162.445892,380.447296 162.920944,378.922852 
	C163.433395,377.278503 163.036865,375.350891 163.036865,374.033630 
	C158.279572,374.033630 153.879120,373.941376 149.485306,374.071899 
	C147.235687,374.138763 144.947327,375.040192 142.766663,374.787170 
	C139.501999,374.408386 136.540192,373.954987 136.043106,378.318848 
	C135.372345,384.207428 136.041733,384.960541 141.392578,384.988922 
	C142.554047,384.995087 143.715454,385.011871 144.987885,385.953033 
M463.821564,406.015045 
	C464.815460,406.034698 465.821198,405.962677 466.801208,406.089661 
	C471.369019,406.681519 473.614655,405.191925 473.072815,400.128204 
	C472.669647,396.360626 473.240540,392.494751 472.926666,388.710052 
	C472.593201,384.689484 474.032715,382.778351 478.103760,383.040009 
	C481.189270,383.238312 482.219208,381.655334 482.016266,378.782257 
	C481.891510,377.016327 481.993134,375.234436 481.993134,372.947205 
	C475.402954,373.290649 469.359070,373.677490 463.309204,373.903564 
	C454.779724,374.222351 453.635529,375.453308 454.664246,384.771912 
	C457.101868,384.955109 459.539490,385.138336 461.879944,385.712494 
	C461.879944,385.712494 462.080048,386.062134 462.054810,386.990662 
	C462.342285,393.286041 462.629730,399.581390 463.821564,406.015045 
M173.978760,406.969727 
	C176.732117,406.646423 179.480408,406.269257 182.239807,406.010437 
	C189.192245,405.358398 189.748611,404.596893 188.291794,396.864990 
	C184.353699,397.112000 180.355881,397.362732 175.383652,397.674591 
	C176.310684,396.439514 176.744186,395.255554 177.378204,395.136108 
	C178.988083,394.832886 180.771896,395.322632 182.330032,394.908234 
	C184.230667,394.402802 186.542389,393.725616 187.599243,392.315491 
	C188.425262,391.213318 188.276169,388.166687 187.338821,387.289551 
	C186.352631,386.366821 183.864532,387.239655 182.123337,386.884155 
	C180.043060,386.459320 176.769928,388.821442 175.818954,384.544800 
	C179.495407,383.994293 182.966751,383.853119 186.201508,382.904846 
	C191.563797,381.332825 188.329483,377.611206 188.499619,374.854797 
	C184.426712,374.854797 181.005875,374.679657 177.611450,374.904053 
	C174.206757,375.129150 170.828415,375.752777 166.491516,376.166718 
	C166.491516,386.645782 166.491516,397.124878 166.491516,407.323364 
	C168.565933,407.174744 170.839111,407.011841 173.978760,406.969727 
M108.450203,376.105225 
	C108.304047,380.215729 107.990974,384.328735 108.052673,388.436127 
	C108.135643,393.960602 108.507759,399.480774 108.983398,405.799652 
	C109.764168,406.522827 110.720711,407.986206 111.297211,407.849304 
	C115.081512,406.950653 120.558327,407.869171 119.344521,401.437378 
	C122.094063,400.784607 124.551437,400.478607 126.793068,399.613586 
	C132.135284,397.552094 136.012894,390.028198 134.955276,384.252411 
	C133.874207,378.348450 129.435760,374.893402 122.559471,375.065674 
	C118.164192,375.175781 113.781975,375.807556 108.450203,376.105225 
M394.024048,402.816956 
	C395.150970,403.873047 396.135956,405.548889 397.436462,405.846680 
	C399.643372,406.351990 402.055328,406.097809 404.370331,405.969177 
	C411.101715,405.595062 417.957031,400.776215 419.662750,394.684509 
	C421.773865,387.145050 421.371826,380.586121 415.795074,376.331604 
	C409.245911,371.335205 402.135895,372.291687 394.143738,375.263977 
	C394.113342,384.171844 394.082977,393.079742 394.024048,402.816956 
M352.813416,403.757294 
	C352.893738,394.943634 353.002258,386.130035 353.008118,377.316315 
	C353.008667,376.491852 352.360596,375.666931 351.557312,374.122223 
	C348.459381,374.122223 345.361420,374.122223 341.869232,374.122223 
	C341.869232,377.744080 341.869232,380.960907 341.869232,385.520203 
	C338.760284,381.407410 336.759338,378.033600 334.011505,375.456177 
	C332.783813,374.304657 329.941345,374.227173 328.044952,374.640533 
	C326.521393,374.972626 324.192352,376.741119 324.152527,377.936554 
	C323.833649,387.513580 323.974304,397.105835 323.974304,406.996002 
	C325.709503,406.996002 326.869537,406.852692 327.982605,407.020691 
	C332.890717,407.761353 334.621582,405.605652 334.041199,400.862823 
	C333.769684,398.644226 333.994720,396.364929 333.994720,393.012146 
	C337.083038,397.101257 339.455811,400.323029 341.914093,403.478180 
	C345.211151,407.710022 347.424561,407.835815 352.813416,403.757294 
M147.228607,234.372482 
	C148.808212,230.619568 150.433350,226.885056 151.959961,223.110703 
	C161.079987,200.562546 170.163498,177.999649 179.290146,155.454178 
	C182.223251,148.208511 185.249985,141.000732 188.460312,133.227325 
	C189.030930,135.770126 189.814880,137.532394 189.753830,139.264908 
	C189.259964,153.279968 188.397308,167.284256 188.052368,181.301804 
	C187.530060,202.526413 187.334351,223.759048 186.062714,245.004440 
	C166.032822,245.002975 146.002869,244.983932 125.973206,245.049957 
	C124.927452,245.053406 123.884094,245.780777 122.893906,246.867828 
	C142.713852,269.213013 162.533783,291.558167 182.950089,314.575684 
	C201.645203,228.855774 220.161118,143.957550 238.721786,58.854034 
	C237.640656,58.506393 236.897202,58.059113 236.153107,58.058086 
	C206.664719,58.017502 177.176132,57.986759 147.688339,58.122166 
	C146.486267,58.127686 144.701248,59.488213 144.188248,60.656658 
	C140.573257,68.890312 137.303207,77.274475 133.766876,85.543793 
	C126.564514,102.385658 119.199715,119.158173 112.021454,136.010208 
	C104.845360,152.857132 97.869362,169.789246 90.707649,186.642365 
	C81.498978,208.312454 72.186310,229.938339 62.930149,251.588287 
	C53.606022,273.397217 44.296150,295.212219 34.980228,317.024628 
	C31.661781,324.794495 28.343853,332.564545 25.033613,340.315948 
	C25.598848,340.624817 25.866812,340.899261 26.135286,340.899750 
	C50.957150,340.946106 75.779228,341.007324 100.600449,340.890167 
	C101.810936,340.884430 103.630463,339.569519 104.128708,338.416016 
	C112.629532,318.735382 121.004143,298.999634 129.242004,279.207550 
	C129.718521,278.062683 129.275330,275.923798 128.442688,274.937866 
	C117.678375,262.191681 106.765617,249.570831 96.358109,236.171692 
	C111.753944,236.114685 127.149994,236.082962 142.545303,235.959778 
	C144.011047,235.948044 145.472229,235.364243 147.228607,234.372482 
M98.663139,373.198212 
	C94.041779,373.791473 89.237976,373.779541 84.837608,375.105988 
	C76.089592,377.742889 71.664383,393.799774 78.530746,401.084106 
	C84.585548,407.507538 91.682053,407.877380 100.245163,401.942413 
	C109.790436,395.326813 109.242729,379.599640 98.663139,373.198212 
M69.535797,399.972076 
	C74.712517,394.851776 75.126862,388.385681 73.349091,382.095154 
	C71.277275,374.764160 59.932720,370.634003 52.457535,374.002563 
	C50.458645,374.903290 47.357906,376.660889 47.326229,378.082245 
	C47.138863,386.489410 47.635670,394.917542 48.122177,403.325897 
	C48.175407,404.245941 49.608181,405.819397 50.439835,405.845306 
	C57.158581,406.054413 64.109673,406.721954 69.535797,399.972076 
M446.158142,384.318787 
	C445.144592,381.584442 443.671539,378.921417 443.233368,376.097809 
	C442.681580,372.542145 440.354431,372.932190 438.094757,373.047577 
	C435.062164,373.202454 431.220978,371.588501 429.874054,376.146698 
	C427.280121,384.924988 424.706512,393.710205 422.275085,402.534058 
	C422.028564,403.428680 422.500244,404.920288 423.177551,405.589111 
	C424.684357,407.077087 431.639313,405.855133 433.093994,404.070343 
	C435.136475,401.564301 438.687225,401.626038 441.078674,403.987061 
	C441.757111,404.656830 443.059998,405.105743 444.010986,405.009399 
	C446.704590,404.736389 449.364258,404.128662 452.629425,403.547333 
	C450.495789,396.964447 448.553986,390.973450 446.158142,384.318787 
M306.560486,373.012146 
	C302.191193,372.281799 299.925140,374.240875 298.867981,378.459381 
	C296.887848,386.360748 294.545349,394.171356 292.564575,402.072571 
	C292.291901,403.160370 293.338501,405.658295 293.582520,405.633240 
	C296.896942,405.293365 300.600677,408.184021 303.620667,403.776428 
	C304.626495,402.308472 308.690399,399.380493 311.149139,404.021912 
	C311.511047,404.705078 313.116272,405.106750 314.088440,405.016479 
	C316.669373,404.776794 319.218658,404.196777 322.228912,403.674316 
	C321.918213,402.159912 321.791626,400.896423 321.396729,399.723236 
	C318.871765,392.222168 316.054932,384.809418 313.824310,377.223480 
	C312.756317,373.591278 310.828857,372.509918 306.560486,373.012146 
M35.164444,404.629639 
	C38.735958,404.351898 42.307472,404.074127 46.662903,403.735413 
	C43.156162,394.034729 39.498806,385.863617 37.352169,377.313263 
	C35.854176,371.346527 31.984314,373.522125 28.657507,372.983398 
	C24.937038,372.380981 23.786400,374.650146 22.982412,377.634125 
	C20.874636,385.457123 18.760878,393.281311 16.446400,401.044464 
	C15.508103,404.191650 17.157669,405.726562 19.597445,405.822021 
	C21.834194,405.909515 24.265640,405.008392 26.351545,404.003662 
	C29.290621,402.587952 31.971218,400.055267 35.164444,404.629639 
M263.907928,392.483856 
	C263.519257,398.516388 265.887238,403.129578 271.367432,405.715729 
	C276.787994,408.273712 285.679108,406.834961 289.439270,403.104980 
	C289.957611,402.590820 290.598358,401.832062 290.579803,401.204407 
	C290.459778,397.144653 285.182434,394.031738 281.265198,395.154144 
	C279.497925,395.660522 277.045837,395.496155 275.545807,394.582764 
	C274.618378,394.018097 274.117340,390.947906 274.802399,389.925323 
	C276.128815,387.945343 278.349609,385.373016 280.338806,385.247375 
	C286.841064,384.836731 287.749023,384.488220 289.690277,377.169281 
	C284.661255,373.685303 279.304565,372.539581 273.759338,375.739319 
	C267.735474,379.215271 263.723969,384.161438 263.907928,392.483856 
z"/>
<path fill="#FDA503" opacity="1.000000" stroke="none" 
	d="
M394.030823,269.102570 
	C393.665741,273.347015 393.738770,277.684570 392.859833,281.819794 
	C389.044891,299.767761 384.917114,317.649048 380.988434,335.573242 
	C380.143005,339.430298 378.573303,341.119049 374.065094,341.102661 
	C318.915497,340.902130 263.763519,340.782715 208.615952,341.172913 
	C199.811859,341.235199 188.813553,329.517548 191.251785,319.150421 
	C196.976807,294.808411 201.774399,270.249329 207.054016,245.801147 
	C210.412888,230.247314 214.026657,214.748627 217.411514,199.200272 
	C222.006104,178.095001 226.464203,156.960037 231.031479,135.848770 
	C234.740082,118.706474 238.525696,101.580864 242.272202,84.446770 
	C243.868317,77.147209 245.397308,69.832359 247.071930,62.550941 
	C247.629837,60.125076 248.384750,57.985668 251.799652,57.990437 
	C306.468842,58.066715 361.138153,58.026588 415.807465,58.050419 
	C425.172424,58.054501 432.065735,62.548477 435.743195,70.931282 
	C437.136902,74.108376 437.126831,78.424805 436.383789,81.930969 
	C431.467255,105.130104 426.145233,128.243011 421.024475,151.399307 
	C418.921631,160.908539 416.990540,170.455765 414.670807,180.516144 
	C413.534943,181.411179 412.709595,181.775742 411.884247,182.140320 
	C404.392090,177.674698 396.803009,173.362579 389.429962,168.708313 
	C377.643555,161.268143 366.031830,153.551666 354.268188,146.074783 
	C352.155182,144.731766 351.105194,143.906738 351.839752,140.842972 
	C353.955109,132.020447 355.337799,123.022247 356.727509,113.361832 
	C355.658264,112.418159 354.870392,112.022812 354.081299,112.020378 
	C339.485992,111.975288 324.890472,111.959763 310.295288,112.018364 
	C309.538086,112.021400 308.783752,112.741516 308.028076,113.127777 
	C304.279083,130.567261 300.545898,148.010178 296.776886,165.445328 
	C292.526031,185.109665 288.293396,204.778152 283.959106,224.424164 
	C279.869324,242.961899 275.658142,261.472839 271.499207,279.995361 
	C271.114349,281.709442 270.721375,283.421722 270.429138,285.822754 
	C271.162323,286.684509 271.798096,287.008728 272.434692,287.010284 
	C287.265594,287.046783 302.096680,287.070831 316.927368,287.007721 
	C317.964874,287.003296 318.999420,286.305298 320.035370,285.929810 
	C320.035370,285.929840 320.029816,286.032990 320.312134,285.808167 
	C320.774048,284.264923 320.953644,282.946472 321.133240,281.628021 
	C323.129700,271.647705 325.024292,261.645569 327.155823,251.694168 
	C328.773407,244.142151 330.692719,236.654739 332.737518,228.044937 
	C345.545898,236.152466 357.909637,243.978531 370.702698,252.250488 
	C374.906342,256.221161 379.053650,258.255676 383.620667,256.046112 
	C384.740356,257.940033 385.485077,259.683655 386.652344,261.071960 
	C388.989502,263.851715 391.557892,266.437012 394.030823,269.102570 
z"/>
<path fill="#808080" opacity="1.000000" stroke="none" 
	d="
M186.999878,244.988281 
	C187.334351,223.759048 187.530060,202.526413 188.052368,181.301804 
	C188.397308,167.284256 189.259964,153.279968 189.753830,139.264908 
	C189.814880,137.532394 189.030930,135.770126 188.460312,133.227325 
	C185.249985,141.000732 182.223251,148.208511 179.290146,155.454178 
	C170.163498,177.999649 161.079987,200.562546 151.959961,223.110703 
	C150.433350,226.885056 148.808212,230.619568 146.619843,234.659225 
	C140.886963,234.962692 135.762894,234.987900 130.638779,234.994385 
	C119.893974,235.007965 109.148636,234.969131 98.405357,235.101456 
	C97.559692,235.111877 96.728355,236.285370 95.890358,236.918335 
	C106.765617,249.570831 117.678375,262.191681 128.442688,274.937866 
	C129.275330,275.923798 129.718521,278.062683 129.242004,279.207550 
	C121.004143,298.999634 112.629532,318.735382 104.128708,338.416016 
	C103.630463,339.569519 101.810936,340.884430 100.600449,340.890167 
	C75.779228,341.007324 50.957150,340.946106 26.135286,340.899750 
	C25.866812,340.899261 25.598848,340.624817 25.033613,340.315948 
	C28.343853,332.564545 31.661781,324.794495 34.980228,317.024628 
	C44.296150,295.212219 53.606022,273.397217 62.930149,251.588287 
	C72.186310,229.938339 81.498978,208.312454 90.707649,186.642365 
	C97.869362,169.789246 104.845360,152.857132 112.021454,136.010208 
	C119.199715,119.158173 126.564514,102.385658 133.766876,85.543793 
	C137.303207,77.274475 140.573257,68.890312 144.188248,60.656658 
	C144.701248,59.488213 146.486267,58.127686 147.688339,58.122166 
	C177.176132,57.986759 206.664719,58.017502 236.153107,58.058086 
	C236.897202,58.059113 237.640656,58.506393 238.721786,58.854034 
	C220.161118,143.957550 201.645203,228.855774 182.950089,314.575684 
	C162.533783,291.558167 142.713852,269.213013 123.345383,246.496536 
	C143.005432,246.078384 162.214157,246.058472 181.422302,245.941818 
	C183.283371,245.930527 185.140778,245.320435 186.999878,244.988281 
z"/>
<path fill="#828282" opacity="1.000000" stroke="none" 
	d="
M352.014191,404.169769 
	C347.424561,407.835815 345.211151,407.710022 341.914093,403.478180 
	C339.455811,400.323029 337.083038,397.101257 333.994720,393.012146 
	C333.994720,396.364929 333.769684,398.644226 334.041199,400.862823 
	C334.621582,405.605652 332.890717,407.761353 327.982605,407.020691 
	C326.869537,406.852692 325.709503,406.996002 323.974304,406.996002 
	C323.974304,397.105835 323.833649,387.513580 324.152527,377.936554 
	C324.192352,376.741119 326.521393,374.972626 328.044952,374.640533 
	C329.941345,374.227173 332.783813,374.304657 334.011505,375.456177 
	C336.759338,378.033600 338.760284,381.407410 341.869232,385.520203 
	C341.869232,380.960907 341.869232,377.744080 341.869232,374.122223 
	C345.361420,374.122223 348.459381,374.122223 351.738892,374.959015 
	C351.951721,385.253784 351.982941,394.711792 352.014191,404.169769 
z"/>
<path fill="#F8A710" opacity="1.000000" stroke="none" 
	d="
M98.963737,373.487793 
	C109.242729,379.599640 109.790436,395.326813 100.245163,401.942413 
	C91.682053,407.877380 84.585548,407.507538 78.530746,401.084106 
	C71.664383,393.799774 76.089592,377.742889 84.837608,375.105988 
	C89.237976,373.779541 94.041779,373.791473 98.963737,373.487793 
M89.625130,384.934204 
	C86.785667,385.955200 85.319366,387.926117 86.058807,390.932404 
	C86.408028,392.352203 87.532570,394.783478 88.119247,394.729462 
	C90.363190,394.522919 93.279800,394.105927 94.515350,392.596802 
	C95.728035,391.115570 95.777222,388.046082 95.188072,386.005249 
	C94.911659,385.047760 91.935417,384.869659 89.625130,384.934204 
z"/>
<path fill="#F8A710" opacity="1.000000" stroke="none" 
	d="
M69.265808,400.230042 
	C64.109673,406.721954 57.158581,406.054413 50.439835,405.845306 
	C49.608181,405.819397 48.175407,404.245941 48.122177,403.325897 
	C47.635670,394.917542 47.138863,386.489410 47.326229,378.082245 
	C47.357906,376.660889 50.458645,374.903290 52.457535,374.002563 
	C59.932720,370.634003 71.277275,374.764160 73.349091,382.095154 
	C75.126862,388.385681 74.712517,394.851776 69.265808,400.230042 
M62.361256,384.055206 
	C60.725182,383.655304 59.089104,383.255402 57.149895,382.781433 
	C57.149895,387.420898 57.149895,391.396393 57.163479,395.372833 
	C63.777706,394.066376 65.382233,391.114594 62.361256,384.055206 
z"/>
<path fill="#838383" opacity="1.000000" stroke="none" 
	d="
M446.385162,384.650635 
	C448.553986,390.973450 450.495789,396.964447 452.629425,403.547333 
	C449.364258,404.128662 446.704590,404.736389 444.010986,405.009399 
	C443.059998,405.105743 441.757111,404.656830 441.078674,403.987061 
	C438.687225,401.626038 435.136475,401.564301 433.093994,404.070343 
	C431.639313,405.855133 424.684357,407.077087 423.177551,405.589111 
	C422.500244,404.920288 422.028564,403.428680 422.275085,402.534058 
	C424.706512,393.710205 427.280121,384.924988 429.874054,376.146698 
	C431.220978,371.588501 435.062164,373.202454 438.094757,373.047577 
	C440.354431,372.932190 442.681580,372.542145 443.233368,376.097809 
	C443.671539,378.921417 445.144592,381.584442 446.385162,384.650635 
z"/>
<path fill="#838383" opacity="1.000000" stroke="none" 
	d="
M307.000580,373.014374 
	C310.828857,372.509918 312.756317,373.591278 313.824310,377.223480 
	C316.054932,384.809418 318.871765,392.222168 321.396729,399.723236 
	C321.791626,400.896423 321.918213,402.159912 322.228912,403.674316 
	C319.218658,404.196777 316.669373,404.776794 314.088440,405.016479 
	C313.116272,405.106750 311.511047,404.705078 311.149139,404.021912 
	C308.690399,399.380493 304.626495,402.308472 303.620667,403.776428 
	C300.600677,408.184021 296.896942,405.293365 293.582520,405.633240 
	C293.338501,405.658295 292.291901,403.160370 292.564575,402.072571 
	C294.545349,394.171356 296.887848,386.360748 298.867981,378.459381 
	C299.925140,374.240875 302.191193,372.281799 307.000580,373.014374 
z"/>
<path fill="#828282" opacity="1.000000" stroke="none" 
	d="
M395.000000,375.003265 
	C402.135895,372.291687 409.245911,371.335205 415.795074,376.331604 
	C421.371826,380.586121 421.773865,387.145050 419.662750,394.684509 
	C417.957031,400.776215 411.101715,405.595062 404.370331,405.969177 
	C402.055328,406.097809 399.643372,406.351990 397.436462,405.846680 
	C396.135956,405.548889 395.150970,403.873047 394.268707,402.060120 
	C394.675598,392.536621 394.837799,383.769958 395.000000,375.003265 
M403.994537,386.778931 
	C403.994537,389.471100 403.994537,392.163269 403.994537,394.855438 
	C404.562866,395.102631 405.131226,395.349823 405.699554,395.597015 
	C407.425873,393.470459 410.122803,391.518829 410.548248,389.157898 
	C410.847870,387.495117 408.430847,384.738373 406.554413,383.447479 
	C404.417450,381.977356 403.915710,384.039124 403.994537,386.778931 
z"/>
<path fill="#F8A710" opacity="1.000000" stroke="none" 
	d="
M35.052258,404.221924 
	C31.971218,400.055267 29.290621,402.587952 26.351545,404.003662 
	C24.265640,405.008392 21.834194,405.909515 19.597445,405.822021 
	C17.157669,405.726562 15.508103,404.191650 16.446400,401.044464 
	C18.760878,393.281311 20.874636,385.457123 22.982412,377.634125 
	C23.786400,374.650146 24.937038,372.380981 28.657507,372.983398 
	C31.984314,373.522125 35.854176,371.346527 37.352169,377.313263 
	C39.498806,385.863617 43.156162,394.034729 46.662903,403.735413 
	C42.307472,404.074127 38.735958,404.351898 35.052258,404.221924 
z"/>
<path fill="#F8A60D" opacity="1.000000" stroke="none" 
	d="
M109.393906,376.205505 
	C113.781975,375.807556 118.164192,375.175781 122.559471,375.065674 
	C129.435760,374.893402 133.874207,378.348450 134.955276,384.252411 
	C136.012894,390.028198 132.135284,397.552094 126.793068,399.613586 
	C124.551437,400.478607 122.094063,400.784607 119.344521,401.437378 
	C120.558327,407.869171 115.081512,406.950653 111.297211,407.849304 
	C110.720711,407.986206 109.764168,406.522827 108.965729,404.941406 
	C109.096672,394.790619 109.245293,385.498047 109.393906,376.205505 
M124.632858,389.858429 
	C125.312874,383.904510 124.907471,383.510742 119.269142,384.616974 
	C119.269142,387.026245 119.269142,389.418243 119.269142,392.522644 
	C121.181953,391.679230 122.601433,391.053345 124.632858,389.858429 
z"/>
<path fill="#F8A60D" opacity="1.000000" stroke="none" 
	d="
M167.438507,376.201721 
	C170.828415,375.752777 174.206757,375.129150 177.611450,374.904053 
	C181.005875,374.679657 184.426712,374.854797 188.499619,374.854797 
	C188.329483,377.611206 191.563797,381.332825 186.201508,382.904846 
	C182.966751,383.853119 179.495407,383.994293 175.818954,384.544800 
	C176.769928,388.821442 180.043060,386.459320 182.123337,386.884155 
	C183.864532,387.239655 186.352631,386.366821 187.338821,387.289551 
	C188.276169,388.166687 188.425262,391.213318 187.599243,392.315491 
	C186.542389,393.725616 184.230667,394.402802 182.330032,394.908234 
	C180.771896,395.322632 178.988083,394.832886 177.378204,395.136108 
	C176.744186,395.255554 176.310684,396.439514 175.383652,397.674591 
	C180.355881,397.362732 184.353699,397.112000 188.291794,396.864990 
	C189.748611,404.596893 189.192245,405.358398 182.239807,406.010437 
	C179.480408,406.269257 176.732117,406.646423 173.226135,406.674011 
	C170.218414,405.676483 166.908401,406.713959 167.043976,402.399689 
	C167.318253,393.671539 167.322769,384.934875 167.438507,376.201721 
z"/>
<path fill="#FAD210" opacity="1.000000" stroke="none" 
	d="
M461.066284,288.933197 
	C480.641693,301.565704 484.691895,330.986359 474.719788,343.364685 
	C472.218079,328.057892 463.731293,316.548492 454.435486,305.323975 
	C461.837128,303.664429 464.068451,301.508636 464.287750,295.393768 
	C458.281860,296.587128 458.586731,293.841187 460.928253,289.900085 
	C461.081787,289.641663 461.025146,289.258392 461.066284,288.933197 
z"/>
<path fill="#838383" opacity="1.000000" stroke="none" 
	d="
M263.906433,392.041656 
	C263.723969,384.161438 267.735474,379.215271 273.759338,375.739319 
	C279.304565,372.539581 284.661255,373.685303 289.690277,377.169281 
	C287.749023,384.488220 286.841064,384.836731 280.338806,385.247375 
	C278.349609,385.373016 276.128815,387.945343 274.802399,389.925323 
	C274.117340,390.947906 274.618378,394.018097 275.545807,394.582764 
	C277.045837,395.496155 279.497925,395.660522 281.265198,395.154144 
	C285.182434,394.031738 290.459778,397.144653 290.579803,401.204407 
	C290.598358,401.832062 289.957611,402.590820 289.439270,403.104980 
	C285.679108,406.834961 276.787994,408.273712 271.367432,405.715729 
	C265.887238,403.129578 263.519257,398.516388 263.906433,392.041656 
z"/>
<path fill="#FCC906" opacity="1.000000" stroke="none" 
	d="
M461.042969,288.956299 
	C461.025146,289.258392 461.081787,289.641663 460.928253,289.900085 
	C458.586731,293.841187 458.281860,296.587128 464.287750,295.393768 
	C464.068451,301.508636 461.837128,303.664429 454.302094,305.006744 
	C453.000244,304.231659 452.092194,303.448486 451.063354,302.178009 
	C450.610962,301.489716 450.279358,301.288727 449.947723,301.087708 
	C448.000092,299.910797 445.910461,298.914062 444.136810,297.516388 
	C441.199738,295.201782 438.466156,292.628998 435.222931,289.686951 
	C429.849426,284.639252 436.275238,279.371246 432.346771,273.836945 
	C436.020508,274.365662 438.056885,274.658722 440.093262,274.951813 
	C445.176880,277.920105 450.260498,280.888397 455.729523,284.282776 
	C456.446991,285.127441 456.779053,285.545990 457.111145,285.964539 
	C457.111145,285.964539 457.570587,286.019745 457.945557,286.257935 
	C458.552063,286.690857 458.806488,286.848755 459.083801,286.969788 
	C459.083801,286.969788 459.016541,286.980225 459.098389,287.258545 
	C459.812439,288.007782 460.444611,288.478699 461.076813,288.949615 
	C461.076813,288.949615 461.019684,288.979431 461.042969,288.956299 
M435.874603,283.590607 
	C435.853851,283.838684 435.833099,284.086731 435.812347,284.334808 
	C435.952850,284.338531 436.093353,284.342255 436.233856,284.345978 
	C436.224518,284.096954 436.215179,283.847900 435.874603,283.590607 
z"/>
<path fill="#FBB309" opacity="1.000000" stroke="none" 
	d="
M394.421844,269.052307 
	C391.557892,266.437012 388.989502,263.851715 386.652344,261.071960 
	C385.485077,259.683655 384.740356,257.940033 383.620667,256.046112 
	C379.053650,258.255676 374.906342,256.221161 371.037415,252.348022 
	C370.636139,250.569168 370.329376,249.138641 370.327576,247.434753 
	C372.193024,248.573227 373.827789,249.912079 375.299835,251.410751 
	C379.494873,255.681656 380.546722,255.491074 383.465302,249.560547 
	C376.544067,247.063705 380.050842,239.492996 376.515015,235.232864 
	C386.685150,246.333221 399.410645,253.740112 412.753967,260.950745 
	C410.971619,262.450226 409.165497,263.287262 407.359406,264.124298 
	C406.872894,264.706238 406.386414,265.288177 405.899902,265.870117 
	C407.008820,266.206451 408.266388,266.313873 409.199890,266.920258 
	C412.530518,269.083832 412.487793,270.792786 409.116455,272.854950 
	C408.156982,273.441833 407.011078,273.723846 405.950653,274.145660 
	C402.238068,272.431122 398.525452,270.716583 394.421844,269.052307 
z"/>
<path fill="#828282" opacity="1.000000" stroke="none" 
	d="
M379.839203,394.002014 
	C376.127686,405.509674 365.147552,406.759460 356.586914,405.801392 
	C355.615234,405.692627 354.159760,403.607544 354.128601,402.407684 
	C353.912842,394.099243 353.950745,385.781372 354.097931,377.469910 
	C354.115967,376.451385 355.068420,374.808533 355.922272,374.547028 
	C362.778168,372.447296 369.632141,371.456390 375.585907,376.693787 
	C372.210968,376.731873 370.886108,378.112396 370.934692,381.228607 
	C370.961884,382.972687 370.449005,384.725128 370.042572,386.094452 
	C368.263397,384.658356 366.621094,383.601624 364.281006,382.095917 
	C364.281006,387.110107 364.281006,390.907074 364.281006,395.927338 
	C366.601318,394.197235 368.154877,393.038879 369.997162,392.107300 
	C372.798157,396.740082 376.605652,393.727325 379.839203,394.002014 
z"/>
<path fill="#FBB70A" opacity="1.000000" stroke="none" 
	d="
M422.982574,261.173706 
	C422.801636,261.121429 422.620728,261.069183 422.053284,260.774231 
	C421.472961,260.325531 421.242676,260.175446 420.975922,260.081238 
	C420.975922,260.081238 420.925690,260.077484 420.758179,259.753113 
	C418.035828,258.309387 415.481018,257.190033 412.926208,256.070709 
	C412.926208,256.070709 413.001587,256.005829 412.889221,255.703339 
	C412.071014,254.741302 411.460236,253.914932 410.643677,253.449738 
	C405.892883,250.743301 401.028473,248.231018 396.336273,245.429031 
	C393.677429,243.841248 392.013824,241.873047 394.657990,238.554260 
	C395.548401,237.436630 395.146088,235.236465 395.207184,233.526505 
	C395.261444,232.008224 395.139191,230.483658 395.094818,228.961853 
	C405.645752,234.071915 416.196716,239.181992 426.577820,244.741913 
	C425.971313,247.131790 425.534637,249.071823 425.031616,251.306686 
	C424.085663,251.880203 422.768097,252.679031 421.535248,253.426514 
	C424.850311,257.531464 427.872650,261.273895 430.894989,265.016357 
	C428.807709,264.054749 426.720398,263.093140 424.168182,261.835083 
	C423.499329,261.345245 423.259125,261.223602 422.982574,261.173706 
z"/>
<path fill="#828282" opacity="1.000000" stroke="none" 
	d="
M454.211853,384.130310 
	C453.635529,375.453308 454.779724,374.222351 463.309204,373.903564 
	C469.359070,373.677490 475.402954,373.290649 481.993134,372.947205 
	C481.993134,375.234436 481.891510,377.016327 482.016266,378.782257 
	C482.219208,381.655334 481.189270,383.238312 478.103760,383.040009 
	C474.032715,382.778351 472.593201,384.689484 472.926666,388.710052 
	C473.240540,392.494751 472.669647,396.360626 473.072815,400.128204 
	C473.614655,405.191925 471.369019,406.681519 466.801208,406.089661 
	C465.821198,405.962677 464.815460,406.034698 463.396698,405.486145 
	C462.674561,398.658905 462.377319,392.360504 462.080048,386.062134 
	C462.080048,386.062134 461.879944,385.712494 461.850677,385.100189 
	C459.284882,384.368683 456.748383,384.249512 454.211853,384.130310 
z"/>
<path fill="#FAD313" opacity="1.000000" stroke="none" 
	d="
M472.091553,271.969910 
	C487.151520,284.156830 491.857788,310.071716 483.937134,321.796173 
	C482.822906,318.442871 481.856506,315.823486 481.081848,313.148560 
	C478.786835,305.224091 474.995941,298.117249 469.473328,291.994629 
	C466.990631,289.242188 464.249969,286.722473 461.401550,283.686279 
	C462.876892,283.577301 464.576965,283.879150 465.004791,283.955139 
	C468.160034,282.526947 470.329285,281.545044 472.785706,280.433167 
	C472.573395,277.844696 472.332458,274.907318 472.091553,271.969910 
z"/>
<path fill="#F8AC10" opacity="1.000000" stroke="none" 
	d="
M394.949036,228.643921 
	C395.139191,230.483658 395.261444,232.008224 395.207184,233.526505 
	C395.146088,235.236465 395.548401,237.436630 394.657990,238.554260 
	C392.013824,241.873047 393.677429,243.841248 396.336273,245.429031 
	C401.028473,248.231018 405.892883,250.743301 410.643677,253.449738 
	C411.460236,253.914932 412.071014,254.741302 412.855896,255.740692 
	C405.972290,252.386063 398.708862,249.155106 392.122528,244.880814 
	C383.709808,239.421280 376.454407,232.583832 372.956451,222.714981 
	C370.664154,216.247696 371.429443,210.054169 373.983734,204.192490 
	C377.996002,210.050079 381.428253,215.780212 385.612518,220.895142 
	C388.054688,223.880417 391.699493,225.881897 394.949036,228.643921 
z"/>
<path fill="#F8A60D" opacity="1.000000" stroke="none" 
	d="
M144.876892,385.023773 
	C143.715454,385.011871 142.554047,384.995087 141.392578,384.988922 
	C136.041733,384.960541 135.372345,384.207428 136.043106,378.318848 
	C136.540192,373.954987 139.501999,374.408386 142.766663,374.787170 
	C144.947327,375.040192 147.235687,374.138763 149.485306,374.071899 
	C153.879120,373.941376 158.279572,374.033630 163.036865,374.033630 
	C163.036865,375.350891 163.433395,377.278503 162.920944,378.922852 
	C162.445892,380.447296 161.020447,382.799103 159.976974,382.818420 
	C156.425095,382.884369 155.855942,384.600555 155.944717,387.537292 
	C156.080048,392.014282 155.756943,396.512970 156.048370,400.975067 
	C156.307068,404.936157 154.893494,406.597534 150.225250,405.672791 
	C146.670853,404.971039 145.963623,403.247559 145.899658,400.539124 
	C145.777390,395.362183 145.241257,390.195007 144.876892,385.023773 
z"/>
<path fill="#FBC209" opacity="1.000000" stroke="none" 
	d="
M431.058289,265.340057 
	C427.872650,261.273895 424.850311,257.531464 421.535248,253.426514 
	C422.768097,252.679031 424.085663,251.880203 425.031616,251.306686 
	C425.534637,249.071823 425.971313,247.131790 426.737549,245.065765 
	C434.159088,248.247086 441.251129,251.554367 448.678864,255.398651 
	C449.531006,258.429657 450.432068,260.916687 450.477478,263.419250 
	C450.553467,267.609039 450.083588,271.808716 449.843445,276.004242 
	C443.636169,272.557404 437.428894,269.110596 431.058289,265.340057 
z"/>
<path fill="#808080" opacity="1.000000" stroke="none" 
	d="
M370.179443,386.473816 
	C370.449005,384.725128 370.961884,382.972687 370.934692,381.228607 
	C370.886108,378.112396 372.210968,376.731873 375.737061,376.996033 
	C376.647308,377.345428 377.113892,377.699280 377.403625,378.555603 
	C374.818237,382.671356 376.357239,383.966064 380.107239,383.962219 
	C380.737549,382.602631 382.043243,381.156342 381.881744,379.898407 
	C381.169037,374.345978 384.077301,373.328125 388.579254,374.028687 
	C389.728821,374.207550 390.825806,374.724030 391.930634,375.976532 
	C391.944061,386.264954 391.973816,395.662231 392.003571,405.059509 
	C383.864502,407.859344 382.046783,406.572205 381.890381,398.467346 
	C381.838531,395.782013 380.880463,393.114197 379.970520,390.898682 
	C379.719086,391.903442 379.833954,392.447815 379.948792,392.992218 
	C379.950775,393.162750 379.952789,393.333252 379.896973,393.752869 
	C376.605652,393.727325 372.798157,396.740082 370.102356,391.778870 
	C370.005707,389.640381 370.092590,388.057098 370.179443,386.473816 
M379.875214,386.591675 
	C379.854492,386.839264 379.833771,387.086823 379.813080,387.334442 
	C379.953278,387.338135 380.093506,387.341827 380.233704,387.345520 
	C380.224396,387.096985 380.215088,386.848480 379.875214,386.591675 
z"/>
<path fill="#FBBF0B" opacity="1.000000" stroke="none" 
	d="
M406.094727,274.461060 
	C407.011078,273.723846 408.156982,273.441833 409.116455,272.854950 
	C412.487793,270.792786 412.530518,269.083832 409.199890,266.920258 
	C408.266388,266.313873 407.008820,266.206451 405.899902,265.870117 
	C406.386414,265.288177 406.872894,264.706238 407.359406,264.124298 
	C409.165497,263.287262 410.971619,262.450226 412.910828,261.272278 
	C421.964417,265.388031 430.884949,269.844788 439.949371,274.626648 
	C438.056885,274.658722 436.020508,274.365662 432.346771,273.836945 
	C436.275238,279.371246 429.849426,284.639252 434.900574,289.520935 
	C431.678192,288.397522 428.231781,287.189575 425.056274,285.478729 
	C418.705261,282.057037 412.502655,278.359894 406.094727,274.461060 
z"/>
<path fill="#FCCB0A" opacity="1.000000" stroke="none" 
	d="
M449.995605,276.334717 
	C450.083588,271.808716 450.553467,267.609039 450.477478,263.419250 
	C450.432068,260.916687 449.531006,258.429657 449.004547,255.559570 
	C454.666687,258.853973 460.338898,262.524475 466.228546,266.781860 
	C466.974274,267.555695 467.502563,267.742676 468.030823,267.929688 
	C468.030823,267.929688 468.009918,267.956940 468.155396,268.158875 
	C468.503876,268.613373 468.750336,268.811920 469.040283,268.956482 
	C469.040283,268.956482 469.000000,268.998779 469.151794,269.178925 
	C469.507996,269.609528 469.752930,269.810608 470.038391,269.962341 
	C470.038391,269.962341 470.000000,270.000000 470.151367,270.180115 
	C470.509338,270.610413 470.756226,270.811005 471.043427,270.962006 
	C471.043427,270.962006 471.000000,271.000000 471.152283,271.178894 
	C471.512482,271.609222 471.760742,271.811066 472.049316,271.963348 
	C472.049316,271.963348 472.062225,271.965576 472.076904,271.967743 
	C472.332458,274.907318 472.573395,277.844696 472.785706,280.433167 
	C470.329285,281.545044 468.160034,282.526947 465.004791,283.955139 
	C464.576965,283.879150 462.876892,283.577301 461.078369,283.546295 
	C457.369263,281.433167 453.758514,279.049194 449.995605,276.334717 
z"/>
<path fill="#FAA609" opacity="1.000000" stroke="none" 
	d="
M223.779541,389.828644 
	C221.407318,388.186462 219.035080,386.544312 215.956375,384.413086 
	C219.088303,381.718597 221.501266,379.642639 224.212402,377.099701 
	C224.715637,376.425079 224.878067,376.188232 224.997849,375.922119 
	C224.997849,375.922119 224.980347,375.987549 225.414246,376.006500 
	C228.009918,375.986481 230.300690,375.494232 232.290222,376.060455 
	C233.728745,376.469910 235.760574,378.237518 235.820053,379.481110 
	C236.161423,386.618164 236.096710,393.781616 235.957214,400.931976 
	C235.875366,405.127258 232.386963,404.558350 229.694931,404.860718 
	C226.704163,405.196564 226.051941,403.375580 226.084106,400.844299 
	C226.126373,397.518951 226.097244,394.187195 225.888779,390.871429 
	C225.864243,390.481171 224.514801,390.174194 223.779541,389.828644 
z"/>
<path fill="#373A3C" opacity="1.000000" stroke="none" 
	d="
M397.062927,207.477722 
	C393.463226,209.124786 389.902466,210.867279 386.240509,212.361740 
	C385.117035,212.820251 382.770752,213.021896 382.592316,212.622665 
	C381.184662,209.472504 379.909607,206.209427 379.112183,202.857773 
	C378.506226,200.310791 379.324036,198.415741 382.350281,197.190613 
	C388.304657,194.780090 393.975220,191.668579 400.443665,189.040298 
	C401.431366,190.473557 402.031586,191.726303 401.978394,192.950668 
	C401.894714,194.877884 401.523651,196.829529 400.991394,198.689926 
	C400.457794,200.555313 399.622528,202.341415 398.833557,204.124252 
	C398.323212,205.277435 397.658447,206.362259 397.062927,207.477722 
z"/>
<path fill="#FDA503" opacity="1.000000" stroke="none" 
	d="
M376.503235,235.249786 
	C380.050842,239.492996 376.544067,247.063705 383.465302,249.560547 
	C380.546722,255.491074 379.494873,255.681656 375.299835,251.410751 
	C373.827789,249.912079 372.193024,248.573227 370.294006,247.110352 
	C369.955444,247.059296 369.988495,247.018021 369.963776,246.653717 
	C367.229095,240.128021 364.417145,233.937103 367.033691,227.038605 
	C367.501953,225.804031 368.996216,224.958603 370.016724,223.933502 
	C370.016724,223.933487 370.061951,223.941666 370.075653,224.239731 
	C370.329285,225.019730 370.569214,225.501663 370.809113,225.983597 
	C370.863098,226.142685 370.917114,226.301773 371.043823,226.989182 
	C371.414124,227.972076 371.711731,228.426666 372.009338,228.881256 
	C373.004639,230.328110 373.999969,231.774963 375.088135,233.844116 
	C375.627014,234.722183 376.073029,234.977921 376.519043,235.233658 
	C376.519043,235.233658 376.491455,235.266708 376.503235,235.249786 
z"/>
<path fill="#464B4B" opacity="1.000000" stroke="none" 
	d="
M397.407074,207.304321 
	C397.658447,206.362259 398.323212,205.277435 398.833557,204.124252 
	C399.622528,202.341415 400.457794,200.555313 400.991394,198.689926 
	C401.523651,196.829529 401.894714,194.877884 401.978394,192.950668 
	C402.031586,191.726303 401.431366,190.473557 400.788635,189.072601 
	C404.065674,187.022095 407.678223,185.132523 411.788239,183.306503 
	C412.170776,185.325378 412.055817,187.280685 411.945496,189.157242 
	C413.228729,191.671585 414.590851,194.340561 415.981445,197.340820 
	C416.034515,197.892380 416.059174,198.112656 416.083801,198.332947 
	C409.972961,201.265610 403.862091,204.198257 397.407074,207.304321 
z"/>
<path fill="#636566" opacity="1.000000" stroke="none" 
	d="
M444.210358,182.113678 
	C439.393677,185.099899 434.576996,188.086136 429.405548,190.771698 
	C432.241760,184.811386 431.672302,178.945663 430.007141,173.019897 
	C433.405426,170.992020 436.803680,168.964142 440.718811,167.266647 
	C442.227234,172.435913 443.218811,177.274796 444.210358,182.113678 
M440.498230,181.531158 
	C440.498230,181.531158 440.480103,181.486938 440.498230,181.531158 
z"/>
<path fill="#6D6E6F" opacity="1.000000" stroke="none" 
	d="
M441.863861,187.003906 
	C446.026215,183.734894 450.188538,180.465881 454.763306,177.398163 
	C459.903107,182.194946 457.430511,188.036285 457.904266,193.367828 
	C454.518097,195.949600 451.131927,198.531372 447.494568,200.818085 
	C449.391479,193.872314 446.979736,187.811432 441.863861,187.003906 
z"/>
<path fill="#636566" opacity="1.000000" stroke="none" 
	d="
M441.570679,187.154694 
	C446.979736,187.811432 449.391479,193.872314 447.133301,200.862823 
	C442.936462,203.821777 438.849762,206.440933 434.410706,208.724976 
	C434.743652,205.842316 435.224640,203.216568 436.162994,200.765915 
	C437.502502,197.267593 437.423950,194.318176 434.033020,192.074509 
	C436.447845,190.484833 438.862671,188.895157 441.570679,187.154694 
z"/>
<path fill="#373A3C" opacity="1.000000" stroke="none" 
	d="
M400.026001,226.209381 
	C395.993958,223.906921 391.834869,221.796021 387.974457,219.234863 
	C385.390137,217.520309 385.583282,215.431686 388.639221,214.173553 
	C392.109406,212.744904 395.629272,211.436951 399.904663,210.043869 
	C401.783844,211.253464 403.855835,212.533813 403.808807,213.730927 
	C403.658905,217.546783 402.721313,221.331696 402.087982,225.128571 
	C402.087982,225.128571 402.029785,225.100662 401.745178,225.114853 
	C400.982391,225.489151 400.504181,225.849274 400.026001,226.209381 
z"/>
<path fill="#595A5C" opacity="1.000000" stroke="none" 
	d="
M429.780823,173.055359 
	C431.672302,178.945663 432.241760,184.811386 429.050293,190.859299 
	C427.005981,192.549728 424.962097,193.851883 422.445679,194.782898 
	C421.460449,191.213287 420.900970,188.021423 420.449615,184.814331 
	C420.070465,182.120224 418.718109,180.704529 415.894531,180.965851 
	C419.325043,179.112030 422.755554,177.258179 426.810944,175.176605 
	C427.936737,174.547974 428.437592,174.147095 428.938477,173.746231 
	C429.058594,173.447647 429.263916,173.229187 429.780823,173.055359 
z"/>
<path fill="#757776" opacity="1.000000" stroke="none" 
	d="
M458.207458,193.172272 
	C457.430511,188.036285 459.903107,182.194946 455.067139,177.245056 
	C457.052582,174.685165 459.146606,172.479675 461.778992,169.915604 
	C462.517273,168.957062 462.717224,168.357086 462.917175,167.757111 
	C463.396545,167.222351 463.875885,166.687592 464.852905,166.335464 
	C465.948273,172.036484 466.546021,177.554840 467.143799,183.073212 
	C464.266083,186.374390 461.388367,189.675568 458.207458,193.172272 
z"/>
<path fill="#757776" opacity="1.000000" stroke="none" 
	d="
M449.905273,159.828354 
	C452.348694,157.639984 454.792084,155.451614 457.854858,153.023529 
	C459.314026,153.770142 460.768646,154.691818 460.880402,155.754669 
	C461.239319,159.168701 461.102142,162.634888 461.156372,166.080963 
	C461.063446,166.392776 460.890747,166.651321 460.186035,167.108582 
	C459.516937,167.666061 459.300110,167.971542 459.083252,168.277023 
	C459.083252,168.277023 459.064331,168.658264 458.811462,169.008545 
	C458.397461,169.656723 458.236267,169.954620 458.075104,170.252518 
	C455.634277,172.537323 453.193451,174.822113 450.402649,176.744186 
	C452.001923,170.845978 452.101318,165.326950 449.905273,159.828354 
z"/>
<path fill="#6D6E6F" opacity="1.000000" stroke="none" 
	d="
M449.656921,159.965363 
	C452.101318,165.326950 452.001923,170.845978 450.052246,176.785797 
	C448.292389,178.718979 446.532898,180.247818 444.491882,181.945175 
	C443.218811,177.274796 442.227234,172.435913 441.071228,167.214386 
	C442.339935,165.669785 443.773041,164.507843 445.806702,163.140305 
	C446.923401,162.561127 447.439545,162.187561 447.955688,161.813995 
	C448.439972,161.243454 448.924286,160.672913 449.656921,159.965363 
z"/>
<path fill="#404346" opacity="1.000000" stroke="none" 
	d="
M402.447754,225.079468 
	C402.721313,221.331696 403.658905,217.546783 403.808807,213.730927 
	C403.855835,212.533813 401.783844,211.253464 400.264954,209.985138 
	C403.115509,208.608795 406.382935,207.258560 410.422546,205.998535 
	C411.793518,207.480835 413.009033,208.936417 412.873535,210.252960 
	C412.492737,213.953217 411.555511,217.596191 410.837738,221.261780 
	C408.161011,222.517975 405.484283,223.774170 402.447754,225.079468 
z"/>
<path fill="#464B4B" opacity="1.000000" stroke="none" 
	d="
M411.216217,221.218567 
	C411.555511,217.596191 412.492737,213.953217 412.873535,210.252960 
	C413.009033,208.936417 411.793518,207.480835 410.778381,205.950073 
	C412.168549,204.546402 413.975037,203.281418 416.496399,201.954773 
	C417.883911,201.533432 418.556580,201.173752 419.229279,200.814087 
	C419.229279,200.814087 419.234161,200.523621 419.626831,200.791473 
	C420.580963,202.814819 421.778381,204.648361 421.574463,206.309952 
	C421.118011,210.029144 419.963959,213.662750 419.094025,217.331207 
	C416.594238,218.612579 414.094452,219.893967 411.216217,221.218567 
z"/>
<path fill="#595A5C" opacity="1.000000" stroke="none" 
	d="
M433.688782,192.158234 
	C437.423950,194.318176 437.502502,197.267593 436.162994,200.765915 
	C435.224640,203.216568 434.743652,205.842316 434.051758,208.798370 
	C432.652649,210.147491 431.260162,211.088120 429.272034,211.761932 
	C428.450531,209.376633 428.375366,207.228226 427.961884,205.147018 
	C427.404877,202.343369 426.587189,199.591507 425.881378,196.817413 
	C428.369080,195.292267 430.856812,193.767105 433.688782,192.158234 
z"/>
<path fill="#808080" opacity="1.000000" stroke="none" 
	d="
M467.444153,182.887299 
	C466.546021,177.554840 465.948273,172.036484 465.103088,166.226593 
	C466.172333,162.463776 467.489044,158.992462 468.876587,155.334351 
	C473.391144,161.777924 473.844025,168.626480 470.243256,177.329651 
	C469.488983,179.152771 468.581451,180.912476 467.444153,182.887299 
z"/>
<path fill="#525353" opacity="1.000000" stroke="none" 
	d="
M415.665131,180.940552 
	C418.718109,180.704529 420.070465,182.120224 420.449615,184.814331 
	C420.900970,188.021423 421.460449,191.213287 422.101379,194.822464 
	C422.229614,195.233170 422.134247,195.213959 421.821472,195.179596 
	C421.013092,195.474594 420.517456,195.803940 420.021820,196.133270 
	C420.021820,196.133286 420.066498,196.059174 419.791870,196.101227 
	C419.016541,196.472977 418.515900,196.802673 418.015228,197.132370 
	C418.015228,197.132370 418.040375,197.063919 417.714935,197.044189 
	C416.910645,197.019485 416.431824,197.014526 415.952972,197.009552 
	C414.590851,194.340561 413.228729,191.671585 411.945496,189.157242 
	C412.055817,187.280685 412.170776,185.325378 412.088501,183.118927 
	C411.891296,182.867813 411.912048,182.503906 411.898132,182.322113 
	C412.709595,181.775742 413.534943,181.411179 414.676514,180.916168 
	C414.992706,180.785736 415.435730,180.915268 415.665131,180.940552 
z"/>
<path fill="#525353" opacity="1.000000" stroke="none" 
	d="
M425.537506,196.884232 
	C426.587189,199.591507 427.404877,202.343369 427.961884,205.147018 
	C428.375366,207.228226 428.450531,209.376633 428.947327,211.825836 
	C426.076263,213.809357 422.934326,215.462173 419.443176,217.223114 
	C419.963959,213.662750 421.118011,210.029144 421.574463,206.309952 
	C421.778381,204.648361 420.580963,202.814819 419.755524,200.724121 
	C421.392212,199.242950 423.292938,198.096985 425.537506,196.884232 
z"/>
<path fill="#808080" opacity="1.000000" stroke="none" 
	d="
M461.453217,165.888428 
	C461.102142,162.634888 461.239319,159.168701 460.880402,155.754669 
	C460.768646,154.691818 459.314026,153.770142 458.141998,152.870087 
	C459.808990,149.172379 461.808197,145.388428 463.798004,141.622299 
	C468.097412,149.858627 466.118622,157.860184 461.453217,165.888428 
z"/>
<path fill="#EFB346" opacity="1.000000" stroke="none" 
	d="
M224.194824,390.026917 
	C224.514801,390.174194 225.864243,390.481171 225.888779,390.871429 
	C226.097244,394.187195 226.126373,397.518951 226.084106,400.844299 
	C226.051941,403.375580 226.704163,405.196564 229.694931,404.860718 
	C232.386963,404.558350 235.875366,405.127258 235.957214,400.931976 
	C236.096710,393.781616 236.161423,386.618164 235.820053,379.481110 
	C235.760574,378.237518 233.728745,376.469910 232.290222,376.060455 
	C230.300690,375.494232 228.009918,375.986481 225.383728,375.991821 
	C228.704453,375.518433 232.489594,375.078674 236.666672,374.593353 
	C236.666672,385.230560 236.666672,395.263794 236.666672,405.669495 
	C233.092896,405.669495 229.367493,405.669495 224.610107,405.669495 
	C224.610107,400.656525 224.610107,395.440857 224.194824,390.026917 
z"/>
<path fill="#E1E1E1" opacity="1.000000" stroke="none" 
	d="
M186.531296,244.996368 
	C185.140778,245.320435 183.283371,245.930527 181.422302,245.941818 
	C162.214157,246.058472 143.005432,246.078384 123.318237,246.148193 
	C123.884094,245.780777 124.927452,245.053406 125.973206,245.049957 
	C146.002869,244.983932 166.032822,245.002975 186.531296,244.996368 
z"/>
<path fill="#FBB309" opacity="1.000000" stroke="none" 
	d="
M369.997375,223.535095 
	C368.996216,224.958603 367.501953,225.804031 367.033691,227.038605 
	C364.417145,233.937103 367.229095,240.128021 369.941711,246.665771 
	C363.502991,243.430969 363.323364,227.375381 366.949341,221.537186 
	C367.354431,220.884979 368.330322,220.587265 369.041534,220.125183 
	C369.353699,221.129028 369.665894,222.132858 369.997375,223.535095 
z"/>
<path fill="#E1E1E1" opacity="1.000000" stroke="none" 
	d="
M96.124237,236.545013 
	C96.728355,236.285370 97.559692,235.111877 98.405357,235.101456 
	C109.148636,234.969131 119.893974,235.007965 130.638779,234.994385 
	C135.762894,234.987900 140.886963,234.962692 146.473297,234.996002 
	C145.472229,235.364243 144.011047,235.948044 142.545303,235.959778 
	C127.149994,236.082962 111.753944,236.114685 96.124237,236.545013 
z"/>
<path fill="#EFB346" opacity="1.000000" stroke="none" 
	d="
M308.495911,113.080490 
	C308.783752,112.741516 309.538086,112.021400 310.295288,112.018364 
	C324.890472,111.959763 339.485992,111.975288 354.081299,112.020378 
	C354.870392,112.022812 355.658264,112.418159 356.735199,112.949745 
	C341.003723,113.190323 324.983704,113.111763 308.495911,113.080490 
z"/>
<path fill="#FAD489" opacity="1.000000" stroke="none" 
	d="
M319.564606,285.962646 
	C318.999420,286.305298 317.964874,287.003296 316.927368,287.007721 
	C302.096680,287.070831 287.265594,287.046783 272.434692,287.010284 
	C271.798096,287.008728 271.162323,286.684509 270.261841,286.172607 
	C286.362976,285.888245 302.728424,285.941864 319.564606,285.962646 
z"/>
<path fill="#EFB346" opacity="1.000000" stroke="none" 
	d="
M166.965012,376.184204 
	C167.322769,384.934875 167.318253,393.671539 167.043976,402.399689 
	C166.908401,406.713959 170.218414,405.676483 172.792908,406.613617 
	C170.839111,407.011841 168.565933,407.174744 166.491516,407.323364 
	C166.491516,397.124878 166.491516,386.645782 166.965012,376.184204 
z"/>
<path fill="#E1E1E1" opacity="1.000000" stroke="none" 
	d="
M392.409760,404.878448 
	C391.973816,395.662231 391.944061,386.264954 391.959839,376.395996 
	C392.355042,376.562927 393.009216,377.201874 393.008362,377.839966 
	C392.996552,386.792511 392.895386,395.744934 392.409760,404.878448 
z"/>
<path fill="#E1E1E1" opacity="1.000000" stroke="none" 
	d="
M108.922058,376.155365 
	C109.245293,385.498047 109.096672,394.790619 108.851913,404.542969 
	C108.507759,399.480774 108.135643,393.960602 108.052673,388.436127 
	C107.990974,384.328735 108.304047,380.215729 108.922058,376.155365 
z"/>
<path fill="#E1E1E1" opacity="1.000000" stroke="none" 
	d="
M352.413818,403.963531 
	C351.982941,394.711792 351.951721,385.253784 351.967102,375.319031 
	C352.360596,375.666931 353.008667,376.491852 353.008118,377.316315 
	C353.002258,386.130035 352.893738,394.943634 352.413818,403.963531 
z"/>
<path fill="#838383" opacity="1.000000" stroke="none" 
	d="
M394.571869,375.133606 
	C394.837799,383.769958 394.675598,392.536621 394.282959,401.645447 
	C394.082977,393.079742 394.113342,384.171844 394.571869,375.133606 
z"/>
<path fill="#EFB346" opacity="1.000000" stroke="none" 
	d="
M144.932388,385.488403 
	C145.241257,390.195007 145.777390,395.362183 145.899658,400.539124 
	C145.963623,403.247559 146.670853,404.971039 149.809509,405.604218 
	C148.500961,406.026917 146.888077,406.216583 144.987885,406.440063 
	C144.987885,399.675964 144.987885,392.814484 144.932388,385.488403 
z"/>
<path fill="#E1E1E1" opacity="1.000000" stroke="none" 
	d="
M462.067444,386.526398 
	C462.377319,392.360504 462.674561,398.658905 462.944519,405.417023 
	C462.629730,399.581390 462.342285,393.286041 462.067444,386.526398 
z"/>
<path fill="#828282" opacity="1.000000" stroke="none" 
	d="
M380.079590,383.609192 
	C376.357239,383.966064 374.818237,382.671356 377.565918,378.804810 
	C378.620667,380.119751 379.336334,381.687988 380.079590,383.609192 
z"/>
<path fill="#F8AC10" opacity="1.000000" stroke="none" 
	d="
M413.066650,256.395264 
	C415.481018,257.190033 418.035828,258.309387 420.754578,259.728210 
	C418.348022,258.925049 415.777588,257.822418 413.066650,256.395264 
z"/>
<path fill="#E1E1E1" opacity="1.000000" stroke="none" 
	d="
M454.438049,384.451111 
	C456.748383,384.249512 459.284882,384.368683 461.899261,384.904724 
	C459.539490,385.138336 457.101868,384.955109 454.438049,384.451111 
z"/>
<path fill="#FAD210" opacity="1.000000" stroke="none" 
	d="
M461.032776,288.605957 
	C460.444611,288.478699 459.812439,288.007782 459.113037,287.227814 
	C459.693451,287.366577 460.341095,287.814423 461.032776,288.605957 
z"/>
<path fill="#FAD489" opacity="1.000000" stroke="none" 
	d="
M320.774719,281.836121 
	C320.953644,282.946472 320.774048,284.264923 320.260498,285.806763 
	C320.089783,284.701538 320.252991,283.372864 320.774719,281.836121 
z"/>
<path fill="#595A5C" opacity="1.000000" stroke="none" 
	d="
M418.334290,197.111847 
	C418.515900,196.802673 419.016541,196.472977 419.827698,196.125458 
	C419.643219,196.435547 419.148285,196.763443 418.334290,197.111847 
z"/>
<path fill="#FBB309" opacity="1.000000" stroke="none" 
	d="
M371.993774,228.583511 
	C371.711731,228.426666 371.414124,227.972076 371.091125,227.236725 
	C371.369904,227.399231 371.674042,227.842499 371.993774,228.583511 
z"/>
<path fill="#FBB309" opacity="1.000000" stroke="none" 
	d="
M376.365143,235.028900 
	C376.073029,234.977921 375.627014,234.722183 375.114075,234.190414 
	C375.435150,234.217636 375.823212,234.520889 376.365143,235.028900 
z"/>
<path fill="#404346" opacity="1.000000" stroke="none" 
	d="
M400.333160,226.149323 
	C400.504181,225.849274 400.982391,225.489151 401.767944,225.091980 
	C401.596985,225.399689 401.118652,225.744461 400.333160,226.149323 
z"/>
<path fill="#FBB309" opacity="1.000000" stroke="none" 
	d="
M370.880432,225.681213 
	C370.569214,225.501663 370.329285,225.019730 370.076813,224.262680 
	C370.360107,224.451324 370.655945,224.915085 370.880432,225.681213 
z"/>
<path fill="#757776" opacity="1.000000" stroke="none" 
	d="
M447.623230,161.872162 
	C447.439545,162.187561 446.923401,162.561127 446.082947,163.000275 
	C446.269348,162.687332 446.780060,162.308823 447.623230,161.872162 
z"/>
<path fill="#FAD313" opacity="1.000000" stroke="none" 
	d="
M467.929840,267.639923 
	C467.502563,267.742676 466.974274,267.555695 466.264709,267.151123 
	C466.665253,267.072418 467.247040,267.211304 467.929840,267.639923 
z"/>
<path fill="#525353" opacity="1.000000" stroke="none" 
	d="
M418.814697,200.848053 
	C418.556580,201.173752 417.883911,201.533432 416.828918,201.913391 
	C417.097778,201.583160 417.748962,201.232605 418.814697,200.848053 
z"/>
<path fill="#595A5C" opacity="1.000000" stroke="none" 
	d="
M415.981445,197.340820 
	C416.431824,197.014526 416.910645,197.019485 417.748077,197.059418 
	C417.629303,197.435349 417.151917,197.776337 416.379150,198.225128 
	C416.059174,198.112656 416.034515,197.892380 415.981445,197.340820 
z"/>
<path fill="#828282" opacity="1.000000" stroke="none" 
	d="
M380.024719,392.665680 
	C379.833954,392.447815 379.719086,391.903442 379.765686,391.187439 
	C379.984924,391.456970 380.042755,391.898041 380.024719,392.665680 
z"/>
<path fill="#595A5C" opacity="1.000000" stroke="none" 
	d="
M420.341797,196.121277 
	C420.517456,195.803940 421.013092,195.474594 421.817474,195.131104 
	C421.638062,195.447739 421.149902,195.778519 420.341797,196.121277 
z"/>
<path fill="#FAD210" opacity="1.000000" stroke="none" 
	d="
M457.052856,285.656738 
	C456.779053,285.545990 456.446991,285.127441 456.050964,284.442444 
	C456.322876,284.567017 456.658752,284.957977 457.052856,285.656738 
z"/>
<path fill="#FAD210" opacity="1.000000" stroke="none" 
	d="
M450.024048,301.336609 
	C450.279358,301.288727 450.610962,301.489716 450.960327,301.890991 
	C450.685516,301.922699 450.392944,301.754120 450.024048,301.336609 
z"/>
<path fill="#808080" opacity="1.000000" stroke="none" 
	d="
M462.621460,167.912949 
	C462.717224,168.357086 462.517273,168.957062 462.061218,169.757156 
	C461.978638,169.327774 462.152191,168.698273 462.621460,167.912949 
z"/>
<path fill="#636566" opacity="1.000000" stroke="none" 
	d="
M428.607178,173.807373 
	C428.437592,174.147095 427.936737,174.547974 427.105560,175.021408 
	C427.275452,174.685486 427.775665,174.277008 428.607178,173.807373 
z"/>
<path fill="#F8AC10" opacity="1.000000" stroke="none" 
	d="
M423.052673,261.405518 
	C423.259125,261.223602 423.499329,261.345245 423.842285,261.690338 
	C423.981293,261.842010 423.504150,261.939423 423.504150,261.939423 
	C423.504150,261.939423 423.122803,261.637360 423.052673,261.405518 
z"/>
<path fill="#808080" opacity="1.000000" stroke="none" 
	d="
M458.312775,170.115570 
	C458.236267,169.954620 458.397461,169.656723 458.748291,169.188629 
	C458.808807,169.338516 458.679626,169.658585 458.312775,170.115570 
z"/>
<path fill="#F8AC10" opacity="1.000000" stroke="none" 
	d="
M421.003906,260.334198 
	C421.242676,260.175446 421.472961,260.325531 421.779785,260.703613 
	C421.605804,260.779480 421.318817,260.683319 421.003906,260.334198 
z"/>
<path fill="#FAD313" opacity="1.000000" stroke="none" 
	d="
M468.980164,268.702637 
	C468.750336,268.811920 468.503876,268.613373 468.172272,268.159302 
	C468.335785,268.121429 468.627899,268.285126 468.980164,268.702637 
z"/>
<path fill="#FAD313" opacity="1.000000" stroke="none" 
	d="
M469.971130,269.712799 
	C469.752930,269.810608 469.507996,269.609528 469.171814,269.159363 
	C469.327942,269.127502 469.615906,269.295380 469.971130,269.712799 
z"/>
<path fill="#EFB346" opacity="1.000000" stroke="none" 
	d="
M224.755341,375.989532 
	C224.878067,376.188232 224.715637,376.425079 224.344513,376.770020 
	C224.289917,376.623871 224.401382,376.340393 224.755341,375.989532 
z"/>
<path fill="#FAD313" opacity="1.000000" stroke="none" 
	d="
M470.973877,270.712158 
	C470.756226,270.811005 470.509338,270.610413 470.169617,270.160553 
	C470.325806,270.128021 470.615051,270.295166 470.973877,270.712158 
z"/>
<path fill="#FAD313" opacity="1.000000" stroke="none" 
	d="
M471.979248,271.712158 
	C471.760742,271.811066 471.512482,271.609222 471.170776,271.156830 
	C471.327728,271.124237 471.618439,271.292633 471.979248,271.712158 
z"/>
<path fill="#FAD210" opacity="1.000000" stroke="none" 
	d="
M459.006226,286.714111 
	C458.806488,286.848755 458.552063,286.690857 458.163940,286.334290 
	C458.314453,286.267792 458.621552,286.363129 459.006226,286.714111 
z"/>
<path fill="#808080" opacity="1.000000" stroke="none" 
	d="
M459.346405,168.150497 
	C459.300110,167.971542 459.516937,167.666061 459.971558,167.206833 
	C460.009399,167.376724 459.809479,167.700348 459.346405,168.150497 
z"/>
<path fill="#000000" opacity="1.000000" stroke="none" 
	d="
M89.903915,384.636292 
	C91.935417,384.869659 94.911659,385.047760 95.188072,386.005249 
	C95.777222,388.046082 95.728035,391.115570 94.515350,392.596802 
	C93.279800,394.105927 90.363190,394.522919 88.119247,394.729462 
	C87.532570,394.783478 86.408028,392.352203 86.058807,390.932404 
	C85.319366,387.926117 86.785667,385.955200 89.903915,384.636292 
z"/>
<path fill="#000000" opacity="1.000000" stroke="none" 
	d="
M62.694572,384.319763 
	C65.382233,391.114594 63.777706,394.066376 57.156685,395.372375 
	C57.149895,391.396393 57.149895,387.420898 57.149895,382.781433 
	C59.089104,383.255402 60.725182,383.655304 62.694572,384.319763 
z"/>
<path fill="#000000" opacity="1.000000" stroke="none" 
	d="
M403.995422,386.335938 
	C403.915710,384.039124 404.417450,381.977356 406.554413,383.447479 
	C408.430847,384.738373 410.847870,387.495117 410.548248,389.157898 
	C410.122803,391.518829 407.425873,393.470459 405.699554,395.597015 
	C405.131226,395.349823 404.562866,395.102631 403.994537,394.855438 
	C403.994537,392.163269 403.994537,389.471100 403.995422,386.335938 
z"/>
<path fill="#000000" opacity="1.000000" stroke="none" 
	d="
M124.326889,390.142944 
	C122.601433,391.053345 121.181953,391.679230 119.269142,392.522644 
	C119.269142,389.418243 119.269142,387.026245 119.269142,384.616974 
	C124.907471,383.510742 125.312874,383.904510 124.326889,390.142944 
z"/>
<path fill="#FBBF0B" opacity="1.000000" stroke="none" 
	d="
M436.040222,283.594727 
	C436.215179,283.847900 436.224518,284.096954 436.233856,284.345978 
	C436.093353,284.342255 435.952850,284.338531 435.812347,284.334808 
	C435.833099,284.086731 435.853851,283.838684 436.040222,283.594727 
z"/>
<path fill="#000000" opacity="1.000000" stroke="none" 
	d="
M370.042572,386.094452 
	C370.092590,388.057098 370.005707,389.640381 369.813660,391.552094 
	C368.154877,393.038879 366.601318,394.197235 364.281006,395.927338 
	C364.281006,390.907074 364.281006,387.110107 364.281006,382.095917 
	C366.621094,383.601624 368.263397,384.658356 370.042572,386.094452 
z"/>
<path fill="#828282" opacity="1.000000" stroke="none" 
	d="
M380.040497,386.595825 
	C380.215088,386.848480 380.224396,387.096985 380.233704,387.345520 
	C380.093506,387.341827 379.953278,387.338135 379.813080,387.334412 
	C379.833771,387.086823 379.854492,386.839264 380.040497,386.595825 
z"/>
<path fill="#6D6E6F" opacity="1.000000" stroke="none" 
	d="
M440.489166,181.509048 
	C440.480103,181.486938 440.498230,181.531158 440.489166,181.509048 
z"/>
</svg>