<?xml version="1.0" encoding="UTF-8"?>
<!DOCTYPE svg PUBLIC "-//W3C//DTD SVG 1.1//EN" "http://www.w3.org/Graphics/SVG/1.1/DTD/svg11.dtd">
<svg xmlns="http://www.w3.org/2000/svg" version="1.1" width="500px" height="500px" style="shape-rendering:geometricPrecision; text-rendering:geometricPrecision; image-rendering:optimizeQuality; fill-rule:evenodd; clip-rule:evenodd" xmlns:xlink="http://www.w3.org/1999/xlink">
<g><path style="opacity:0.999" fill="#828282" d="M 121.5,244.5 C 143.167,244.5 164.833,244.5 186.5,244.5C 186.5,234.5 186.5,224.5 186.5,214.5C 186.519,188.783 187.186,163.117 188.5,137.5C 187.811,135.556 187.311,133.556 187,131.5C 173.257,165.569 159.423,199.569 145.5,233.5C 127.83,233.333 110.164,233.5 92.5,234C 93.0442,234.717 93.7109,235.217 94.5,235.5C 104.823,247.46 115.157,259.46 125.5,271.5C 126.63,273.315 127.296,275.315 127.5,277.5C 119.128,298.115 110.461,318.615 101.5,339C 75.4936,339.833 49.4936,339.667 23.5,338.5C 63.6088,245.283 103.442,151.949 143,58.5C 158.613,57.1744 174.447,56.5078 190.5,56.5C 206.167,56.8333 221.833,57.1667 237.5,57.5C 218.729,142.525 199.895,227.525 181,312.5C 160.935,289.942 141.102,267.275 121.5,244.5 Z"/></g>
<g><path style="opacity:1" fill="#e2aa46" d="M 422.5,57.5 C 364.167,57.5 305.833,57.5 247.5,57.5C 247.405,59.7857 246.738,61.7857 245.5,63.5C 245.337,60.314 246.337,57.6473 248.5,55.5C 306.627,56.1628 364.627,56.8295 422.5,57.5 Z"/></g>
<g><path style="opacity:1" fill="#f5a518" d="M 422.5,57.5 C 422.833,57.5 423.167,57.5 423.5,57.5C 423.5,57.8333 423.5,58.1667 423.5,58.5C 365.167,58.5 306.833,58.5 248.5,58.5C 248.673,61.9826 247.673,64.9826 245.5,67.5C 245.5,66.5 245.5,65.5 245.5,64.5C 245.5,64.1667 245.5,63.8333 245.5,63.5C 246.738,61.7857 247.405,59.7857 247.5,57.5C 305.833,57.5 364.167,57.5 422.5,57.5 Z"/></g>
<g><path style="opacity:1" fill="#fda501" d="M 423.5,58.5 C 424.514,59.6737 425.847,60.3404 427.5,60.5C 429.167,61.5 430.5,62.8333 431.5,64.5C 431.427,66.0269 432.094,67.0269 433.5,67.5C 435.061,74.1352 434.228,80.4685 431,86.5C 429.511,93.4295 428.678,100.429 428.5,107.5C 427.969,112.62 426.969,117.62 425.5,122.5C 423.933,123.681 423.099,125.347 423,127.5C 422.503,130.146 422.336,132.813 422.5,135.5C 422.634,137.292 422.301,138.958 421.5,140.5C 419.96,142.838 419.294,145.505 419.5,148.5C 419.5,148.833 419.5,149.167 419.5,149.5C 418.883,149.611 418.383,149.944 418,150.5C 416.985,154.44 416.485,158.44 416.5,162.5C 415.883,162.611 415.383,162.944 415,163.5C 414.265,167.813 413.765,172.147 413.5,176.5C 412.844,177.278 412.011,177.944 411,178.5C 408.379,176.968 405.546,175.968 402.5,175.5C 401.766,174.292 401.433,172.959 401.5,171.5C 399.097,171.552 396.764,171.219 394.5,170.5C 392.326,170.25 390.659,169.25 389.5,167.5C 388.27,165.703 387.604,163.703 387.5,161.5C 384.43,161.632 381.43,161.299 378.5,160.5C 377.522,158.188 375.855,156.522 373.5,155.5C 372.614,154.675 372.281,153.675 372.5,152.5C 369.549,152.713 366.882,152.046 364.5,150.5C 363.833,150.5 363.167,150.5 362.5,150.5C 362.027,149.094 361.027,148.427 359.5,148.5C 359.027,147.094 358.027,146.427 356.5,146.5C 355.508,146.672 354.842,146.338 354.5,145.5C 354.027,144.094 353.027,143.427 351.5,143.5C 351.5,140.833 351.5,138.167 351.5,135.5C 351.5,135.167 351.5,134.833 351.5,134.5C 353.862,132.081 354.862,129.081 354.5,125.5C 355.117,125.611 355.617,125.944 356,126.5C 356.194,122.198 357.027,118.032 358.5,114C 358.46,110.961 356.96,109.128 354,108.5C 337.375,109.437 320.875,109.77 304.5,109.5C 303.909,115.858 301.909,121.692 298.5,127C 299.516,127.519 300.182,128.353 300.5,129.5C 298.874,135.05 298.208,140.716 298.5,146.5C 297.883,146.611 297.383,146.944 297,147.5C 296.882,150.371 296.216,153.038 295,155.5C 294.502,158.482 294.335,161.482 294.5,164.5C 294.675,166.621 294.341,168.621 293.5,170.5C 291.777,172.78 291.111,175.447 291.5,178.5C 291.5,178.833 291.5,179.167 291.5,179.5C 289.777,181.78 289.111,184.447 289.5,187.5C 289.5,187.833 289.5,188.167 289.5,188.5C 287.96,190.838 287.294,193.505 287.5,196.5C 287.5,197.167 287.5,197.833 287.5,198.5C 286.12,198.962 285.453,199.962 285.5,201.5C 284.698,204.449 284.364,207.449 284.5,210.5C 283.879,215.605 282.879,220.605 281.5,225.5C 279.777,227.78 279.111,230.447 279.5,233.5C 277.938,236.642 276.438,239.975 275,243.5C 274.499,247.51 273.999,251.51 273.5,255.5C 273.5,257.167 273.5,258.833 273.5,260.5C 271.516,260.484 270.516,261.484 270.5,263.5C 271.156,265.453 271.489,267.453 271.5,269.5C 271.5,270.167 271.5,270.833 271.5,271.5C 269.364,274.942 268.03,278.775 267.5,283C 267.57,283.765 267.903,284.265 268.5,284.5C 285.5,285.833 302.5,285.833 319.5,284.5C 322.352,277.577 323.686,270.244 323.5,262.5C 325.556,261.407 326.556,259.574 326.5,257C 327.123,252.853 327.456,248.686 327.5,244.5C 329.067,243.319 329.901,241.653 330,239.5C 330.497,236.854 330.664,234.187 330.5,231.5C 331.458,231.047 332.292,230.381 333,229.5C 335.007,230.669 337.173,231.335 339.5,231.5C 341.674,231.75 343.341,232.75 344.5,234.5C 346.362,237.192 348.862,239.192 352,240.5C 353.438,241.9 354.271,243.567 354.5,245.5C 357.57,245.368 360.57,245.701 363.5,246.5C 364.344,248.759 366.011,249.759 368.5,249.5C 369.465,252.32 371.465,253.653 374.5,253.5C 374.962,254.88 375.962,255.547 377.5,255.5C 379.606,254.57 381.606,253.404 383.5,252C 384.635,251.251 385.635,251.417 386.5,252.5C 383.58,255.505 384.246,257.338 388.5,258C 387.446,259.388 387.28,260.888 388,262.5C 390.226,264.285 391.392,266.618 391.5,269.5C 386.1,292.267 381.433,315.267 377.5,338.5C 320.166,338.667 262.832,338.5 205.5,338C 203.134,337.56 200.801,337.06 198.5,336.5C 197.525,332.532 195.192,329.865 191.5,328.5C 191.33,326.152 190.997,323.818 190.5,321.5C 192.471,315.338 193.471,309.005 193.5,302.5C 193.5,302.167 193.5,301.833 193.5,301.5C 195.204,299.214 196.537,296.548 197.5,293.5C 201.249,278.504 203.916,263.171 205.5,247.5C 206.458,247.047 207.292,246.381 208,245.5C 208.83,240.192 209.33,234.859 209.5,229.5C 209.5,229.167 209.5,228.833 209.5,228.5C 211.04,226.162 211.706,223.495 211.5,220.5C 211.5,220.167 211.5,219.833 211.5,219.5C 212.117,219.389 212.617,219.056 213,218.5C 215.675,210.118 217.175,201.452 217.5,192.5C 217.5,192.167 217.5,191.833 217.5,191.5C 218.5,191.5 219.5,191.5 220.5,191.5C 220.76,185.828 221.093,180.161 221.5,174.5C 221.5,174.167 221.5,173.833 221.5,173.5C 222.9,170.313 224.734,167.313 227,164.5C 227.499,161.978 227.332,159.478 226.5,157C 228.464,153.776 229.63,150.276 230,146.5C 230.699,140.511 231.199,134.511 231.5,128.5C 231.5,128.167 231.5,127.833 231.5,127.5C 232.496,127.586 233.329,127.252 234,126.5C 234.757,120.851 235.257,115.184 235.5,109.5C 236.649,109.209 237.316,108.376 237.5,107C 238.286,103.542 238.62,100.042 238.5,96.5C 238.325,94.3792 238.659,92.3792 239.5,90.5C 243.679,83.6432 245.679,75.9766 245.5,67.5C 247.673,64.9826 248.673,61.9826 248.5,58.5C 306.833,58.5 365.167,58.5 423.5,58.5 Z"/></g>
<g><path style="opacity:1" fill="#facd88" d="M 423.5,57.5 C 425.23,58.0256 426.564,59.0256 427.5,60.5C 425.847,60.3404 424.514,59.6737 423.5,58.5C 423.5,58.1667 423.5,57.8333 423.5,57.5 Z"/></g>
<g><path style="opacity:0.435" fill="#fcdea2" d="M 431.5,64.5 C 432.906,64.9731 433.573,65.9731 433.5,67.5C 432.094,67.0269 431.427,66.0269 431.5,64.5 Z"/></g>
<g><path style="opacity:1" fill="#f3b74b" d="M 245.5,64.5 C 245.5,65.5 245.5,66.5 245.5,67.5C 245.679,75.9766 243.679,83.6432 239.5,90.5C 240.899,81.5793 242.899,72.9127 245.5,64.5 Z"/></g>
<g><path style="opacity:1" fill="#f4ba51" d="M 433.5,67.5 C 434.222,67.9175 434.722,68.5842 435,69.5C 434.686,82.5607 432.519,95.2274 428.5,107.5C 428.678,100.429 429.511,93.4295 431,86.5C 434.228,80.4685 435.061,74.1352 433.5,67.5 Z"/></g>
<g><path style="opacity:1" fill="#f3b547" d="M 238.5,96.5 C 238.62,100.042 238.286,103.542 237.5,107C 237.316,108.376 236.649,109.209 235.5,109.5C 235.882,104.908 236.882,100.575 238.5,96.5 Z"/></g>
<g><path style="opacity:1" fill="#f6ab25" d="M 354.5,125.5 C 354.5,124.167 354.5,122.833 354.5,121.5C 354.833,118.167 355.167,114.833 355.5,111.5C 339.008,110.503 322.342,110.17 305.5,110.5C 305.5,111.833 305.5,113.167 305.5,114.5C 305.5,115.167 305.5,115.833 305.5,116.5C 304.883,116.611 304.383,116.944 304,117.5C 303.505,119.473 303.338,121.473 303.5,123.5C 303.5,123.833 303.5,124.167 303.5,124.5C 301.96,126.838 301.294,129.505 301.5,132.5C 301.102,137.412 300.102,142.079 298.5,146.5C 298.208,140.716 298.874,135.05 300.5,129.5C 300.182,128.353 299.516,127.519 298.5,127C 301.909,121.692 303.909,115.858 304.5,109.5C 320.875,109.77 337.375,109.437 354,108.5C 356.96,109.128 358.46,110.961 358.5,114C 357.027,118.032 356.194,122.198 356,126.5C 355.617,125.944 355.117,125.611 354.5,125.5 Z"/></g>
<g><path style="opacity:0.541" fill="#f6ce83" d="M 305.5,116.5 C 305.073,119.01 304.407,121.343 303.5,123.5C 303.338,121.473 303.505,119.473 304,117.5C 304.383,116.944 304.883,116.611 305.5,116.5 Z"/></g>
<g><path style="opacity:0.846" fill="#f9bc51" d="M 355.5,111.5 C 339.167,111.5 322.833,111.5 306.5,111.5C 306.737,112.791 306.404,113.791 305.5,114.5C 305.5,113.167 305.5,111.833 305.5,110.5C 322.342,110.17 339.008,110.503 355.5,111.5 Z"/></g>
<g><path style="opacity:1" fill="#f2b441" d="M 235.5,109.5 C 235.257,115.184 234.757,120.851 234,126.5C 233.329,127.252 232.496,127.586 231.5,127.5C 232.47,121.302 233.804,115.302 235.5,109.5 Z"/></g>
<g><path style="opacity:0.435" fill="#f9d77b" d="M 303.5,124.5 C 303.435,127.428 302.768,130.095 301.5,132.5C 301.294,129.505 301.96,126.838 303.5,124.5 Z"/></g>
<g><path style="opacity:1" fill="#f4bf57" d="M 354.5,121.5 C 354.5,122.833 354.5,124.167 354.5,125.5C 354.862,129.081 353.862,132.081 351.5,134.5C 351.882,129.908 352.882,125.575 354.5,121.5 Z"/></g>
<g><path style="opacity:1" fill="#f3c259" d="M 425.5,122.5 C 424.863,127.035 423.863,131.368 422.5,135.5C 422.336,132.813 422.503,130.146 423,127.5C 423.099,125.347 423.933,123.681 425.5,122.5 Z"/></g>
<g><path style="opacity:1" fill="#efc571" d="M 351.5,135.5 C 351.5,138.167 351.5,140.833 351.5,143.5C 350.503,143.53 349.836,143.03 349.5,142C 349.99,139.654 350.657,137.487 351.5,135.5 Z"/></g>
<g><path style="opacity:0.49" fill="#f9d585" d="M 421.5,140.5 C 421.435,143.428 420.768,146.095 419.5,148.5C 419.294,145.505 419.96,142.838 421.5,140.5 Z"/></g>
<g><path style="opacity:0.533" fill="#fbdb93" d="M 351.5,143.5 C 353.027,143.427 354.027,144.094 354.5,145.5C 352.973,145.573 351.973,144.906 351.5,143.5 Z"/></g>
<g><path style="opacity:0.686" fill="#f9ca7b" d="M 356.5,146.5 C 358.027,146.427 359.027,147.094 359.5,148.5C 357.973,148.573 356.973,147.906 356.5,146.5 Z"/></g>
<g><path style="opacity:1" fill="#f5c261" d="M 298.5,146.5 C 297.785,152.755 296.451,158.755 294.5,164.5C 294.335,161.482 294.502,158.482 295,155.5C 296.216,153.038 296.882,150.371 297,147.5C 297.383,146.944 297.883,146.611 298.5,146.5 Z"/></g>
<g><path style="opacity:0.561" fill="#fad688" d="M 359.5,148.5 C 361.027,148.427 362.027,149.094 362.5,150.5C 360.973,150.573 359.973,149.906 359.5,148.5 Z"/></g>
<g><path style="opacity:0.455" fill="#ffd8a1" d="M 362.5,150.5 C 363.167,150.5 363.833,150.5 364.5,150.5C 364.833,151.167 365.167,151.833 365.5,152.5C 363.973,152.573 362.973,151.906 362.5,150.5 Z"/></g>
<g><path style="opacity:1" fill="#f4c666" d="M 419.5,149.5 C 419.118,154.092 418.118,158.425 416.5,162.5C 416.485,158.44 416.985,154.44 418,150.5C 418.383,149.944 418.883,149.611 419.5,149.5 Z"/></g>
<g><path style="opacity:1" fill="#f6b645" d="M 364.5,150.5 C 366.882,152.046 369.549,152.713 372.5,152.5C 372.281,153.675 372.614,154.675 373.5,155.5C 375.855,156.522 377.522,158.188 378.5,160.5C 373.657,158.582 369.323,155.916 365.5,152.5C 365.167,151.833 364.833,151.167 364.5,150.5 Z"/></g>
<g><path style="opacity:1" fill="#f3b039" d="M 231.5,128.5 C 231.199,134.511 230.699,140.511 230,146.5C 229.63,150.276 228.464,153.776 226.5,157C 227.332,159.478 227.499,161.978 227,164.5C 224.734,167.313 222.9,170.313 221.5,173.5C 224.343,158.273 227.676,143.273 231.5,128.5 Z"/></g>
<g><path style="opacity:0.999" fill="#7f7f7f" d="M 438.5,183.5 C 438.36,181.876 439.027,180.71 440.5,180C 436.578,177.677 436.912,177.177 441.5,178.5C 441.669,177.603 442.002,176.603 442.5,175.5C 443.425,176.641 444.259,176.641 445,175.5C 445.064,172.237 445.898,169.237 447.5,166.5C 444.768,165.943 442.101,165.61 439.5,165.5C 445.102,161.073 450.602,156.407 456,151.5C 458.89,148.386 460.724,144.72 461.5,140.5C 461.392,139.558 461.059,138.725 460.5,138C 461.483,137.409 462.15,137.743 462.5,139C 466.438,149.925 464.605,159.758 457,168.5C 451.249,174.092 445.082,179.092 438.5,183.5 Z"/></g>
<g><path style="opacity:0.998" fill="#8a8a8a" d="M 454.5,193.5 C 454.335,189.818 454.501,186.152 455,182.5C 455.36,184.608 456.027,186.608 457,188.5C 460.418,185.555 462.584,181.888 463.5,177.5C 462.189,176.742 461.689,175.742 462,174.5C 465.662,175.153 466.995,173.486 466,169.5C 463.929,172.416 462.595,172.082 462,168.5C 460.513,169.253 460.346,170.086 461.5,171C 460.207,171.49 458.873,171.657 457.5,171.5C 462.558,166.053 466.058,159.72 468,152.5C 472.745,162.477 472.078,172.144 466,181.5C 462.664,186.002 458.831,190.002 454.5,193.5 Z"/></g>
<g><path style="opacity:1" fill="#f4b53d" d="M 378.5,160.5 C 381.43,161.299 384.43,161.632 387.5,161.5C 387.604,163.703 388.27,165.703 389.5,167.5C 385.317,165.913 381.65,163.579 378.5,160.5 Z"/></g>
<g><path style="opacity:1" fill="#f7c46a" d="M 416.5,162.5 C 416.102,167.412 415.102,172.079 413.5,176.5C 413.765,172.147 414.265,167.813 415,163.5C 415.383,162.944 415.883,162.611 416.5,162.5 Z"/></g>
<g><path style="opacity:1" fill="#f3bd54" d="M 394.5,170.5 C 396.764,171.219 399.097,171.552 401.5,171.5C 401.433,172.959 401.766,174.292 402.5,175.5C 399.296,174.617 396.629,172.95 394.5,170.5 Z"/></g>
<g><path style="opacity:0.953" fill="#f4cb71" d="M 293.5,170.5 C 293.198,173.373 292.531,176.039 291.5,178.5C 291.111,175.447 291.777,172.78 293.5,170.5 Z"/></g>
<g><path style="opacity:0.999" fill="#626364" d="M 439.5,165.5 C 442.101,165.61 444.768,165.943 447.5,166.5C 445.898,169.237 445.064,172.237 445,175.5C 444.259,176.641 443.425,176.641 442.5,175.5C 442.002,176.603 441.669,177.603 441.5,178.5C 436.912,177.177 436.578,177.677 440.5,180C 439.027,180.71 438.36,181.876 438.5,183.5C 429.108,189.864 419.108,195.197 408.5,199.5C 408.389,198.883 408.056,198.383 407.5,198C 410.268,196.269 412.935,194.436 415.5,192.5C 417.224,187.939 416.557,183.939 413.5,180.5C 413.5,180.167 413.5,179.833 413.5,179.5C 422.194,174.821 430.86,170.154 439.5,165.5 Z"/></g>
<g><path style="opacity:1" fill="#f1bc5b" d="M 402.5,175.5 C 405.546,175.968 408.379,176.968 411,178.5C 412.011,177.944 412.844,177.278 413.5,176.5C 413.5,177.5 413.5,178.5 413.5,179.5C 413.5,179.833 413.5,180.167 413.5,180.5C 411.833,181.167 410.167,181.833 408.5,182.5C 408.611,181.883 408.944,181.383 409.5,181C 406.98,179.303 404.647,177.47 402.5,175.5 Z"/></g>
<g><path style="opacity:0.998" fill="#727473" d="M 454.5,193.5 C 448.016,198.911 441.016,203.578 433.5,207.5C 433.34,205.801 433.506,204.134 434,202.5C 434.333,202.833 434.667,203.167 435,203.5C 436.307,202.228 437.807,201.228 439.5,200.5C 438.425,197.562 438.259,194.562 439,191.5C 439.333,191.833 439.667,192.167 440,192.5C 440.374,191.584 440.874,190.75 441.5,190C 438.849,189.78 436.183,189.947 433.5,190.5C 442.051,184.959 450.051,178.625 457.5,171.5C 458.873,171.657 460.207,171.49 461.5,171C 460.346,170.086 460.513,169.253 462,168.5C 462.595,172.082 463.929,172.416 466,169.5C 466.995,173.486 465.662,175.153 462,174.5C 461.689,175.742 462.189,176.742 463.5,177.5C 462.584,181.888 460.418,185.555 457,188.5C 456.027,186.608 455.36,184.608 455,182.5C 454.501,186.152 454.335,189.818 454.5,193.5 Z"/></g>
<g><path style="opacity:0.973" fill="#f4c876" d="M 291.5,179.5 C 291.198,182.373 290.531,185.039 289.5,187.5C 289.111,184.447 289.777,181.78 291.5,179.5 Z"/></g>
<g><path style="opacity:0.431" fill="#fad892" d="M 289.5,188.5 C 289.435,191.428 288.768,194.095 287.5,196.5C 287.294,193.505 287.96,190.838 289.5,188.5 Z"/></g>
<g><path style="opacity:1" fill="#f5b23e" d="M 221.5,174.5 C 221.093,180.161 220.76,185.828 220.5,191.5C 219.5,191.5 218.5,191.5 217.5,191.5C 218.342,185.603 219.676,179.936 221.5,174.5 Z"/></g>
<g><path style="opacity:1" fill="#4b4f4f" d="M 413.5,180.5 C 416.557,183.939 417.224,187.939 415.5,192.5C 412.935,194.436 410.268,196.269 407.5,198C 408.056,198.383 408.389,198.883 408.5,199.5C 403.93,202.616 398.93,204.95 393.5,206.5C 393.227,204.549 393.893,203.049 395.5,202C 394.707,198.589 394.207,195.089 394,191.5C 393.667,194.167 393.333,196.833 393,199.5C 392.882,196.629 392.216,193.962 391,191.5C 389.937,192.438 388.77,193.438 387.5,194.5C 386.817,194.137 386.15,193.804 385.5,193.5C 392.976,189.597 400.642,185.93 408.5,182.5C 410.167,181.833 411.833,181.167 413.5,180.5 Z"/></g>
<g><path style="opacity:1" fill="#3b3e41" d="M 393.5,206.5 C 390.912,208.592 387.912,209.925 384.5,210.5C 382.716,210.107 381.05,209.441 379.5,208.5C 373.778,200.381 375.778,195.381 385.5,193.5C 386.15,193.804 386.817,194.137 387.5,194.5C 388.77,193.438 389.937,192.438 391,191.5C 392.216,193.962 392.882,196.629 393,199.5C 393.333,196.833 393.667,194.167 394,191.5C 394.207,195.089 394.707,198.589 395.5,202C 393.893,203.049 393.227,204.549 393.5,206.5 Z"/></g>
<g><path style="opacity:1" fill="#5d5e60" d="M 433.5,207.5 C 427.117,211.358 420.45,214.692 413.5,217.5C 414.582,215.661 415.415,213.661 416,211.5C 417.054,213.754 418.554,214.087 420.5,212.5C 421.424,209.974 422.424,207.474 423.5,205C 423.036,201.801 421.703,201.134 419.5,203C 420.741,204.487 420.241,205.32 418,205.5C 417.167,205.333 416.333,205.167 415.5,205C 416.032,202.995 415.032,201.829 412.5,201.5C 419.335,197.582 426.335,193.915 433.5,190.5C 436.183,189.947 438.849,189.78 441.5,190C 440.874,190.75 440.374,191.584 440,192.5C 439.667,192.167 439.333,191.833 439,191.5C 438.259,194.562 438.425,197.562 439.5,200.5C 437.807,201.228 436.307,202.228 435,203.5C 434.667,203.167 434.333,202.833 434,202.5C 433.506,204.134 433.34,205.801 433.5,207.5 Z"/></g>
<g><path style="opacity:1" fill="#f5c66d" d="M 287.5,198.5 C 286.787,202.687 285.787,206.687 284.5,210.5C 284.364,207.449 284.698,204.449 285.5,201.5C 285.453,199.962 286.12,198.962 287.5,198.5 Z"/></g>
<g><path style="opacity:1" fill="#e9c17a" d="M 374.5,204.5 C 373.391,204.557 372.391,204.89 371.5,205.5C 372.576,199.89 373.576,199.557 374.5,204.5 Z"/></g>
<g><path style="opacity:1" fill="#f1b951" d="M 217.5,192.5 C 217.175,201.452 215.675,210.118 213,218.5C 212.617,219.056 212.117,219.389 211.5,219.5C 213.009,210.273 215.009,201.273 217.5,192.5 Z"/></g>
<g><path style="opacity:1" fill="#4f5152" d="M 412.5,201.5 C 415.032,201.829 416.032,202.995 415.5,205C 416.333,205.167 417.167,205.333 418,205.5C 420.241,205.32 420.741,204.487 419.5,203C 421.703,201.134 423.036,201.801 423.5,205C 422.424,207.474 421.424,209.974 420.5,212.5C 418.554,214.087 417.054,213.754 416,211.5C 415.415,213.661 414.582,215.661 413.5,217.5C 411.819,219.008 409.819,220.008 407.5,220.5C 408.807,219.198 408.807,217.865 407.5,216.5C 411.056,213.263 412.223,209.263 411,204.5C 407.132,206.333 403.299,208.166 399.5,210C 396.768,210.413 394.101,211.08 391.5,212C 392.696,212.654 392.696,213.154 391.5,213.5C 390.583,212.873 389.583,212.539 388.5,212.5C 396.422,208.85 404.422,205.184 412.5,201.5 Z"/></g>
<g><path style="opacity:1" fill="#faaa19" d="M 374.5,204.5 C 376.147,207.795 377.814,211.128 379.5,214.5C 380.511,216.372 381.345,218.372 382,220.5C 383.803,221.313 385.303,222.48 386.5,224C 384.859,225.022 383.359,226.522 382,228.5C 381.026,226.122 380.359,226.456 380,229.5C 378.812,230.348 377.312,230.348 375.5,229.5C 373.399,226.873 372.066,223.873 371.5,220.5C 371.5,215.833 371.5,211.167 371.5,206.5C 371.5,206.167 371.5,205.833 371.5,205.5C 372.391,204.89 373.391,204.557 374.5,204.5 Z"/></g>
<g><path style="opacity:0.82" fill="#707171" d="M 379.5,208.5 C 381.05,209.441 382.716,210.107 384.5,210.5C 381.983,213.074 380.316,212.408 379.5,208.5 Z"/></g>
<g><path style="opacity:1" fill="#ecc470" d="M 371.5,206.5 C 371.5,211.167 371.5,215.833 371.5,220.5C 370.734,218.316 370.067,215.982 369.5,213.5C 370.067,211.018 370.734,208.684 371.5,206.5 Z"/></g>
<g><path style="opacity:1" fill="#3e4243" d="M 407.5,220.5 C 404.376,222.057 401.209,223.723 398,225.5C 392.901,222.367 388.068,218.867 383.5,215C 384.91,213.628 386.577,212.795 388.5,212.5C 389.583,212.539 390.583,212.873 391.5,213.5C 392.696,213.154 392.696,212.654 391.5,212C 394.101,211.08 396.768,210.413 399.5,210C 403.299,208.166 407.132,206.333 411,204.5C 412.223,209.263 411.056,213.263 407.5,216.5C 408.807,217.865 408.807,219.198 407.5,220.5 Z"/></g>
<g><path style="opacity:0.384" fill="#f6d9a7" d="M 368.5,219.5 C 367.391,219.557 366.391,219.89 365.5,220.5C 366.395,216.162 367.395,215.829 368.5,219.5 Z"/></g>
<g><path style="opacity:0.718" fill="#f6cc6e" d="M 365.5,220.5 C 365.829,223.228 365.163,225.562 363.5,227.5C 363.41,224.848 364.076,222.515 365.5,220.5 Z"/></g>
<g><path style="opacity:1" fill="#f9b32b" d="M 379.5,214.5 C 385.327,220.234 391.66,225.234 398.5,229.5C 395.482,229.335 392.482,229.502 389.5,230C 390.308,230.308 390.975,230.808 391.5,231.5C 388.036,235.651 388.036,239.651 391.5,243.5C 385.273,239.945 379.94,235.278 375.5,229.5C 377.312,230.348 378.812,230.348 380,229.5C 380.359,226.456 381.026,226.122 382,228.5C 383.359,226.522 384.859,225.022 386.5,224C 385.303,222.48 383.803,221.313 382,220.5C 381.345,218.372 380.511,216.372 379.5,214.5 Z"/></g>
<g><path style="opacity:0.729" fill="#f8cb73" d="M 211.5,220.5 C 211.706,223.495 211.04,226.162 209.5,228.5C 209.565,225.572 210.232,222.905 211.5,220.5 Z"/></g>
<g><path style="opacity:0.91" fill="#f5cf7e" d="M 281.5,225.5 C 281.198,228.373 280.531,231.039 279.5,233.5C 279.111,230.447 279.777,227.78 281.5,225.5 Z"/></g>
<g><path style="opacity:1" fill="#f0b84e" d="M 339.5,231.5 C 337.173,231.335 335.007,230.669 333,229.5C 332.292,230.381 331.458,231.047 330.5,231.5C 330.116,229.335 330.783,227.668 332.5,226.5C 335.154,227.836 337.487,229.503 339.5,231.5 Z"/></g>
<g><path style="opacity:1" fill="#f7b540" d="M 368.5,219.5 C 369.632,223.76 371.299,227.76 373.5,231.5C 371.551,230.275 370.218,230.942 369.5,233.5C 369.167,233.167 368.833,232.833 368.5,232.5C 369.615,228.951 369.115,225.618 367,222.5C 366.373,225.716 365.539,228.883 364.5,232C 365.107,235.143 365.441,238.31 365.5,241.5C 363.319,237.077 362.652,232.41 363.5,227.5C 365.163,225.562 365.829,223.228 365.5,220.5C 366.391,219.89 367.391,219.557 368.5,219.5 Z"/></g>
<g><path style="opacity:0.941" fill="#ffdba3" d="M 373.5,231.5 C 375.833,233.167 377.833,235.167 379.5,237.5C 376.5,236.5 374.5,234.5 373.5,231.5 Z"/></g>
<g><path style="opacity:0.235" fill="#e1e1e1" d="M 145.5,233.5 C 128.5,234.167 111.5,234.833 94.5,235.5C 93.7109,235.217 93.0442,234.717 92.5,234C 110.164,233.5 127.83,233.333 145.5,233.5 Z"/></g>
<g><path style="opacity:1" fill="#f5c44d" d="M 398.5,229.5 C 405.484,232.325 412.151,235.659 418.5,239.5C 410.343,238.802 403.676,235.469 398.5,229.5 Z"/></g>
<g><path style="opacity:1" fill="#f8bc5a" d="M 330.5,231.5 C 330.664,234.187 330.497,236.854 330,239.5C 329.901,241.653 329.067,243.319 327.5,244.5C 327.882,239.908 328.882,235.575 330.5,231.5 Z"/></g>
<g><path style="opacity:1" fill="#fcb60d" d="M 398.5,229.5 C 403.676,235.469 410.343,238.802 418.5,239.5C 418.833,239.5 419.167,239.5 419.5,239.5C 419.5,240.5 419.5,241.5 419.5,242.5C 420.5,242.5 421.5,242.5 422.5,242.5C 421.98,245.292 422.98,247.792 425.5,250C 421.299,250.074 417.299,250.907 413.5,252.5C 416.789,252.423 420.123,253.09 423.5,254.5C 423.291,255.086 422.957,255.586 422.5,256C 429.414,259.576 429.081,260.742 421.5,259.5C 419.38,256.531 416.38,255.198 412.5,255.5C 404.677,252.761 397.677,248.761 391.5,243.5C 388.036,239.651 388.036,235.651 391.5,231.5C 390.975,230.808 390.308,230.308 389.5,230C 392.482,229.502 395.482,229.335 398.5,229.5 Z"/></g>
<g><path style="opacity:1" fill="#fca90a" d="M 373.5,231.5 C 374.5,234.5 376.5,236.5 379.5,237.5C 379.525,240.179 380.858,241.512 383.5,241.5C 383.66,243.153 384.326,244.486 385.5,245.5C 385.5,246.833 385.5,248.167 385.5,249.5C 382.518,250.406 379.685,251.74 377,253.5C 376.098,253.257 375.265,252.923 374.5,252.5C 373.596,251.791 373.263,250.791 373.5,249.5C 372.041,249.567 370.708,249.234 369.5,248.5C 367.902,246.302 366.569,243.969 365.5,241.5C 365.441,238.31 365.107,235.143 364.5,232C 365.539,228.883 366.373,225.716 367,222.5C 369.115,225.618 369.615,228.951 368.5,232.5C 368.833,232.833 369.167,233.167 369.5,233.5C 370.218,230.942 371.551,230.275 373.5,231.5 Z"/></g>
<g><path style="opacity:1" fill="#facb78" d="M 379.5,237.5 C 381.167,238.5 382.5,239.833 383.5,241.5C 380.858,241.512 379.525,240.179 379.5,237.5 Z"/></g>
<g><path style="opacity:1" fill="#f6cb51" d="M 419.5,239.5 C 422.485,240.326 425.151,241.659 427.5,243.5C 425.784,243.371 424.117,243.038 422.5,242.5C 421.5,242.5 420.5,242.5 419.5,242.5C 419.5,241.5 419.5,240.5 419.5,239.5 Z"/></g>
<g><path style="opacity:0.961" fill="#f4d38c" d="M 356.5,241.5 C 357.71,241.932 358.71,242.599 359.5,243.5C 357.821,243.715 356.821,243.048 356.5,241.5 Z"/></g>
<g><path style="opacity:0.241" fill="#d7d7d7" d="M 186.5,214.5 C 186.5,224.5 186.5,234.5 186.5,244.5C 164.833,244.5 143.167,244.5 121.5,244.5C 142.091,243.501 163.424,243.167 185.5,243.5C 185.173,233.652 185.506,223.986 186.5,214.5 Z"/></g>
<g><path style="opacity:1" fill="#f3b545" d="M 279.5,233.5 C 278.634,239.96 277.301,246.293 275.5,252.5C 274.833,253.5 274.167,254.5 273.5,255.5C 273.999,251.51 274.499,247.51 275,243.5C 276.438,239.975 277.938,236.642 279.5,233.5 Z"/></g>
<g><path style="opacity:1" fill="#f3b23e" d="M 209.5,229.5 C 209.33,234.859 208.83,240.192 208,245.5C 207.292,246.381 206.458,247.047 205.5,247.5C 206.214,241.249 207.548,235.249 209.5,229.5 Z"/></g>
<g><path style="opacity:1" fill="#f7b644" d="M 344.5,234.5 C 348.801,236.317 352.801,238.65 356.5,241.5C 356.821,243.048 357.821,243.715 359.5,243.5C 361.23,244.026 362.564,245.026 363.5,246.5C 360.57,245.701 357.57,245.368 354.5,245.5C 354.271,243.567 353.438,241.9 352,240.5C 348.862,239.192 346.362,237.192 344.5,234.5 Z"/></g>
<g><path style="opacity:0.851" fill="#ffe5aa" d="M 429.5,243.5 C 430.71,243.932 431.71,244.599 432.5,245.5C 430.821,245.715 429.821,245.048 429.5,243.5 Z"/></g>
<g><path style="opacity:1" fill="#f3c469" d="M 363.5,246.5 C 365.434,247.11 367.101,248.11 368.5,249.5C 366.011,249.759 364.344,248.759 363.5,246.5 Z"/></g>
<g><path style="opacity:1" fill="#f7c940" d="M 427.5,243.5 C 428.167,243.5 428.833,243.5 429.5,243.5C 429.821,245.048 430.821,245.715 432.5,245.5C 438.151,247.659 443.484,250.326 448.5,253.5C 445.126,253.326 441.793,252.826 438.5,252C 439.167,251.667 439.833,251.333 440.5,251C 437.634,249.724 434.8,249.557 432,250.5C 431.51,249.207 431.343,247.873 431.5,246.5C 430.167,246.5 428.833,246.5 427.5,246.5C 427.5,245.5 427.5,244.5 427.5,243.5 Z"/></g>
<g><path style="opacity:1" fill="#fcc206" d="M 422.5,242.5 C 424.117,243.038 425.784,243.371 427.5,243.5C 427.5,244.5 427.5,245.5 427.5,246.5C 428.833,246.5 430.167,246.5 431.5,246.5C 431.343,247.873 431.51,249.207 432,250.5C 434.8,249.557 437.634,249.724 440.5,251C 439.833,251.333 439.167,251.667 438.5,252C 441.793,252.826 445.126,253.326 448.5,253.5C 449.164,256.015 450.497,258.181 452.5,260C 450.777,260.775 449.777,262.108 449.5,264C 451.303,268.704 449.637,270.537 444.5,269.5C 442.095,268.232 439.428,267.565 436.5,267.5C 434.973,264.932 432.639,263.599 429.5,263.5C 426.515,262.674 423.849,261.341 421.5,259.5C 429.081,260.742 429.414,259.576 422.5,256C 422.957,255.586 423.291,255.086 423.5,254.5C 420.123,253.09 416.789,252.423 413.5,252.5C 417.299,250.907 421.299,250.074 425.5,250C 422.98,247.792 421.98,245.292 422.5,242.5 Z"/></g>
<g><path style="opacity:1" fill="#f6c953" d="M 369.5,248.5 C 370.708,249.234 372.041,249.567 373.5,249.5C 373.263,250.791 373.596,251.791 374.5,252.5C 374.5,252.833 374.5,253.167 374.5,253.5C 371.465,253.653 369.465,252.32 368.5,249.5C 369.167,249.5 369.5,249.167 369.5,248.5 Z"/></g>
<g><path style="opacity:1" fill="#f7c969" d="M 383.5,241.5 C 389.537,245.513 395.537,249.513 401.5,253.5C 399.94,253.481 398.44,253.148 397,252.5C 393.455,249.706 389.622,247.372 385.5,245.5C 384.326,244.486 383.66,243.153 383.5,241.5 Z"/></g>
<g><path style="opacity:0.42" fill="#f9da8f" d="M 275.5,252.5 C 275.435,255.428 274.768,258.095 273.5,260.5C 273.5,258.833 273.5,257.167 273.5,255.5C 274.167,254.5 274.833,253.5 275.5,252.5 Z"/></g>
<g><path style="opacity:1" fill="#f4c54d" d="M 412.5,255.5 C 416.38,255.198 419.38,256.531 421.5,259.5C 418.088,258.925 415.088,257.592 412.5,255.5 Z"/></g>
<g><path style="opacity:1" fill="#f5b244" d="M 327.5,244.5 C 327.456,248.686 327.123,252.853 326.5,257C 326.556,259.574 325.556,261.407 323.5,262.5C 324.233,256.249 325.566,250.249 327.5,244.5 Z"/></g>
<g><path style="opacity:1" fill="#fcb60e" d="M 385.5,245.5 C 389.622,247.372 393.455,249.706 397,252.5C 398.44,253.148 399.94,253.481 401.5,253.5C 403.284,253.893 404.95,254.559 406.5,255.5C 407.909,257.761 409.575,259.761 411.5,261.5C 409.833,261.5 408.167,261.5 406.5,261.5C 406.5,262.5 406.5,263.5 406.5,264.5C 408.989,264.298 411.323,264.798 413.5,266C 413.697,268.016 414.697,270.016 416.5,272C 413.046,272.293 412.712,273.626 415.5,276C 415.167,276.167 414.833,276.333 414.5,276.5C 412.184,274.506 409.518,273.506 406.5,273.5C 402.289,271.963 398.289,269.963 394.5,267.5C 393.893,267.624 393.56,267.957 393.5,268.5C 392.833,268.833 392.167,269.167 391.5,269.5C 391.392,266.618 390.226,264.285 388,262.5C 387.28,260.888 387.446,259.388 388.5,258C 384.246,257.338 383.58,255.505 386.5,252.5C 385.635,251.417 384.635,251.251 383.5,252C 381.606,253.404 379.606,254.57 377.5,255.5C 375.962,255.547 374.962,254.88 374.5,253.5C 374.5,253.167 374.5,252.833 374.5,252.5C 375.265,252.923 376.098,253.257 377,253.5C 379.685,251.74 382.518,250.406 385.5,249.5C 385.5,248.167 385.5,246.833 385.5,245.5 Z"/></g>
<g><path style="opacity:0.996" fill="#fbe489" d="M 458.5,259.5 C 460.754,260.124 462.421,261.457 463.5,263.5C 461.205,262.864 459.539,261.531 458.5,259.5 Z"/></g>
<g><path style="opacity:1" fill="#f8c750" d="M 406.5,255.5 C 413.026,258.595 419.359,261.928 425.5,265.5C 424.833,265.5 424.167,265.5 423.5,265.5C 419.673,263.68 415.673,262.346 411.5,261.5C 409.575,259.761 407.909,257.761 406.5,255.5 Z"/></g>
<g><path style="opacity:1" fill="#fbc01f" d="M 411.5,261.5 C 415.673,262.346 419.673,263.68 423.5,265.5C 422.36,266.801 421.027,267.968 419.5,269C 422.901,268.734 424.567,270.234 424.5,273.5C 426.288,273.215 427.955,273.548 429.5,274.5C 427.205,275.136 425.539,276.469 424.5,278.5C 424.808,279.308 425.308,279.975 426,280.5C 429.11,279.327 429.277,279.827 426.5,282C 430.267,284.05 433.267,286.883 435.5,290.5C 425.661,285.082 415.994,279.416 406.5,273.5C 409.518,273.506 412.184,274.506 414.5,276.5C 414.833,276.333 415.167,276.167 415.5,276C 412.712,273.626 413.046,272.293 416.5,272C 414.697,270.016 413.697,268.016 413.5,266C 411.323,264.798 408.989,264.298 406.5,264.5C 406.5,263.5 406.5,262.5 406.5,261.5C 408.167,261.5 409.833,261.5 411.5,261.5 Z"/></g>
<g><path style="opacity:1" fill="#f7d66a" d="M 429.5,263.5 C 432.639,263.599 434.973,264.932 436.5,267.5C 433.669,266.921 431.336,265.588 429.5,263.5 Z"/></g>
<g><path style="opacity:1" fill="#f6bf57" d="M 273.5,260.5 C 273.58,263.781 272.913,266.781 271.5,269.5C 271.489,267.453 271.156,265.453 270.5,263.5C 270.516,261.484 271.516,260.484 273.5,260.5 Z"/></g>
<g><path style="opacity:1" fill="#f9e378" d="M 463.5,263.5 C 465.754,264.124 467.421,265.457 468.5,267.5C 466.205,266.864 464.539,265.531 463.5,263.5 Z"/></g>
<g><path style="opacity:1" fill="#f8d15b" d="M 436.5,267.5 C 439.428,267.565 442.095,268.232 444.5,269.5C 446.229,270.236 447.229,271.57 447.5,273.5C 443.665,271.75 439.999,269.75 436.5,267.5 Z"/></g>
<g><path style="opacity:0.882" fill="#fce5a3" d="M 434.5,269.5 C 435.71,269.932 436.71,270.599 437.5,271.5C 435.821,271.715 434.821,271.048 434.5,269.5 Z"/></g>
<g><path style="opacity:0.776" fill="#cacaca" d="M 125.5,271.5 C 128.349,272.92 129.016,274.92 127.5,277.5C 127.296,275.315 126.63,273.315 125.5,271.5 Z"/></g>
<g><path style="opacity:1" fill="#fcd015" d="M 448.5,253.5 C 452.095,255.102 455.429,257.102 458.5,259.5C 459.539,261.531 461.205,262.864 463.5,263.5C 464.539,265.531 466.205,266.864 468.5,267.5C 470.167,268.5 471.5,269.833 472.5,271.5C 473.606,274.054 474.439,276.721 475,279.5C 477.623,280.741 479.789,282.408 481.5,284.5C 481.446,287.992 482.446,290.992 484.5,293.5C 487.124,301.399 487.124,309.399 484.5,317.5C 483.778,318.551 482.778,319.218 481.5,319.5C 481.5,318.5 481.5,317.5 481.5,316.5C 481.5,315.5 481.5,314.5 481.5,313.5C 481.184,310.054 480.184,306.887 478.5,304C 479.567,301.306 478.567,299.473 475.5,298.5C 474.691,296.929 474.357,295.262 474.5,293.5C 471.315,293.278 470.315,291.778 471.5,289C 468.252,288.918 465.919,287.418 464.5,284.5C 463.583,283.873 462.583,283.539 461.5,283.5C 460.952,282.312 460.619,281.145 460.5,280C 458.257,278.864 455.924,278.03 453.5,277.5C 452.198,275.178 450.198,273.845 447.5,273.5C 447.229,271.57 446.229,270.236 444.5,269.5C 449.637,270.537 451.303,268.704 449.5,264C 449.777,262.108 450.777,260.775 452.5,260C 450.497,258.181 449.164,256.015 448.5,253.5 Z"/></g>
<g><path style="opacity:1" fill="#f9cc37" d="M 425.5,265.5 C 428.622,266.561 431.622,267.895 434.5,269.5C 434.821,271.048 435.821,271.715 437.5,271.5C 447.216,276.021 455.882,282.021 463.5,289.5C 462.167,289.167 460.833,288.833 459.5,288.5C 458.322,287.001 456.655,286.001 454.5,285.5C 454.709,284.914 455.043,284.414 455.5,284C 453.5,283.333 451.5,282.667 449.5,282C 447.333,279.675 444.833,277.842 442,276.5C 439.929,280.121 437.429,280.454 434.5,277.5C 436.045,276.548 437.712,276.215 439.5,276.5C 439.719,275.325 439.386,274.325 438.5,273.5C 435.268,272.051 431.935,270.884 428.5,270C 427.117,268.729 426.117,267.229 425.5,265.5 Z"/></g>
<g><path style="opacity:0.831" fill="#f8e286" d="M 447.5,273.5 C 450.198,273.845 452.198,275.178 453.5,277.5C 451.147,276.66 449.147,275.326 447.5,273.5 Z"/></g>
<g><path style="opacity:1" fill="#f4b345" d="M 323.5,262.5 C 323.686,270.244 322.352,277.577 319.5,284.5C 319.5,283.167 319.5,281.833 319.5,280.5C 320.233,274.249 321.566,268.249 323.5,262.5 Z"/></g>
<g><path style="opacity:1" fill="#fdc804" d="M 423.5,265.5 C 424.167,265.5 424.833,265.5 425.5,265.5C 426.117,267.229 427.117,268.729 428.5,270C 431.935,270.884 435.268,272.051 438.5,273.5C 439.386,274.325 439.719,275.325 439.5,276.5C 437.712,276.215 436.045,276.548 434.5,277.5C 437.429,280.454 439.929,280.121 442,276.5C 444.833,277.842 447.333,279.675 449.5,282C 451.5,282.667 453.5,283.333 455.5,284C 455.043,284.414 454.709,284.914 454.5,285.5C 456.655,286.001 458.322,287.001 459.5,288.5C 455.469,291.213 455.802,293.546 460.5,295.5C 461.167,294.833 461.833,294.167 462.5,293.5C 462.833,293.833 463.167,294.167 463.5,294.5C 461.973,296.193 460.64,298.027 459.5,300C 458.552,300.483 457.552,300.649 456.5,300.5C 456.473,302.199 455.806,303.533 454.5,304.5C 452.754,302.748 450.754,301.415 448.5,300.5C 445.816,298.124 444.482,295.124 444.5,291.5C 441.349,290.68 438.349,290.346 435.5,290.5C 433.267,286.883 430.267,284.05 426.5,282C 429.277,279.827 429.11,279.327 426,280.5C 425.308,279.975 424.808,279.308 424.5,278.5C 425.539,276.469 427.205,275.136 429.5,274.5C 427.955,273.548 426.288,273.215 424.5,273.5C 424.567,270.234 422.901,268.734 419.5,269C 421.027,267.968 422.36,266.801 423.5,265.5 Z"/></g>
<g><path style="opacity:1" fill="#fada5f" d="M 453.5,277.5 C 455.924,278.03 458.257,278.864 460.5,280C 460.619,281.145 460.952,282.312 461.5,283.5C 458.467,281.984 455.8,279.984 453.5,277.5 Z"/></g>
<g><path style="opacity:1" fill="#f8d846" d="M 472.5,271.5 C 476.662,275.001 479.662,279.335 481.5,284.5C 479.789,282.408 477.623,280.741 475,279.5C 474.439,276.721 473.606,274.054 472.5,271.5 Z"/></g>
<g><path style="opacity:1" fill="#f4bf5d" d="M 271.5,271.5 C 270.651,275.894 269.651,280.228 268.5,284.5C 267.903,284.265 267.57,283.765 267.5,283C 268.03,278.775 269.364,274.942 271.5,271.5 Z"/></g>
<g><path style="opacity:0.533" fill="#fad388" d="M 319.5,280.5 C 319.5,281.833 319.5,283.167 319.5,284.5C 302.5,285.833 285.5,285.833 268.5,284.5C 285.167,284.5 301.833,284.5 318.5,284.5C 318.232,282.901 318.566,281.568 319.5,280.5 Z"/></g>
<g><path style="opacity:1" fill="#f6cd79" d="M 197.5,284.5 C 197.706,287.495 197.04,290.162 195.5,292.5C 195.565,289.572 196.232,286.905 197.5,284.5 Z"/></g>
<g><path style="opacity:1" fill="#f4af39" d="M 205.5,247.5 C 203.916,263.171 201.249,278.504 197.5,293.5C 196.537,296.548 195.204,299.214 193.5,301.5C 193.7,298.37 194.366,295.37 195.5,292.5C 197.04,290.162 197.706,287.495 197.5,284.5C 199.676,271.946 202.342,259.612 205.5,247.5 Z"/></g>
<g><path style="opacity:1" fill="#fbcf47" d="M 435.5,290.5 C 438.349,290.346 441.349,290.68 444.5,291.5C 444.482,295.124 445.816,298.124 448.5,300.5C 443.978,297.406 439.644,294.073 435.5,290.5 Z"/></g>
<g><path style="opacity:1" fill="#f5da5a" d="M 481.5,284.5 C 483.472,287.084 484.472,290.084 484.5,293.5C 482.446,290.992 481.446,287.992 481.5,284.5 Z"/></g>
<g><path style="opacity:1" fill="#f9dd6a" d="M 463.5,289.5 C 465.914,290.911 467.581,292.911 468.5,295.5C 465.764,294.427 464.097,292.427 463.5,289.5 Z"/></g>
<g><path style="opacity:1" fill="#f5b74e" d="M 393.5,268.5 C 388.657,292.394 383.324,316.061 377.5,339.5C 377.5,339.167 377.5,338.833 377.5,338.5C 381.433,315.267 386.1,292.267 391.5,269.5C 392.167,269.167 392.833,268.833 393.5,268.5 Z"/></g>
<g><path style="opacity:1" fill="#f8e278" d="M 448.5,300.5 C 450.754,301.415 452.754,302.748 454.5,304.5C 455.11,305.391 455.443,306.391 455.5,307.5C 452.833,305.5 450.5,303.167 448.5,300.5 Z"/></g>
<g><path style="opacity:1" fill="#f7da53" d="M 461.5,283.5 C 462.583,283.539 463.583,283.873 464.5,284.5C 465.919,287.418 468.252,288.918 471.5,289C 470.315,291.778 471.315,293.278 474.5,293.5C 474.357,295.262 474.691,296.929 475.5,298.5C 478.567,299.473 479.567,301.306 478.5,304C 480.184,306.887 481.184,310.054 481.5,313.5C 481.167,313.5 480.833,313.5 480.5,313.5C 476.69,301.876 470.357,291.876 461.5,283.5 Z"/></g>
<g><path style="opacity:1" fill="#fbd419" d="M 459.5,288.5 C 460.833,288.833 462.167,289.167 463.5,289.5C 464.097,292.427 465.764,294.427 468.5,295.5C 471.839,298.835 474.172,302.835 475.5,307.5C 477.065,315.076 477.732,322.742 477.5,330.5C 477.46,333.988 476.793,337.321 475.5,340.5C 474.167,338.833 472.833,337.167 471.5,335.5C 470.364,331.426 469.031,327.426 467.5,323.5C 467.36,321.876 468.027,320.71 469.5,320C 468.207,319.51 466.873,319.343 465.5,319.5C 465.301,315.633 463.301,313.3 459.5,312.5C 458.167,310.833 456.833,309.167 455.5,307.5C 455.443,306.391 455.11,305.391 454.5,304.5C 455.806,303.533 456.473,302.199 456.5,300.5C 457.552,300.649 458.552,300.483 459.5,300C 460.64,298.027 461.973,296.193 463.5,294.5C 463.167,294.167 462.833,293.833 462.5,293.5C 461.833,294.167 461.167,294.833 460.5,295.5C 455.802,293.546 455.469,291.213 459.5,288.5 Z"/></g>
<g><path style="opacity:0.38" fill="#fff1b9" d="M 480.5,313.5 C 480.833,313.5 481.167,313.5 481.5,313.5C 481.5,314.5 481.5,315.5 481.5,316.5C 479.618,315.779 479.285,314.779 480.5,313.5 Z"/></g>
<g><path style="opacity:1" fill="#f9da5a" d="M 459.5,312.5 C 463.301,313.3 465.301,315.633 465.5,319.5C 466.873,319.343 468.207,319.51 469.5,320C 468.027,320.71 467.36,321.876 467.5,323.5C 464.865,319.857 462.199,316.19 459.5,312.5 Z"/></g>
<g><path style="opacity:0.965" fill="#f2bd54" d="M 193.5,302.5 C 193.471,309.005 192.471,315.338 190.5,321.5C 190.997,323.818 191.33,326.152 191.5,328.5C 189.983,326.538 189.316,324.205 189.5,321.5C 190.089,314.883 191.422,308.55 193.5,302.5 Z"/></g>
<g><path style="opacity:1" fill="#ebe894" d="M 484.5,317.5 C 484.477,319.927 483.977,322.26 483,324.5C 482.392,322.846 481.892,321.179 481.5,319.5C 482.778,319.218 483.778,318.551 484.5,317.5 Z"/></g>
<g><path style="opacity:0.839" fill="#f9e57e" d="M 475.5,307.5 C 476.887,309.877 477.721,312.543 478,315.5C 478.816,320.684 478.65,325.684 477.5,330.5C 477.732,322.742 477.065,315.076 475.5,307.5 Z"/></g>
<g><path style="opacity:1" fill="#f5be53" d="M 191.5,328.5 C 195.192,329.865 197.525,332.532 198.5,336.5C 194.783,335.08 192.45,332.413 191.5,328.5 Z"/></g>
<g><path style="opacity:0.196" fill="#e5e5e5" d="M 183.5,334.5 C 182.549,335.919 182.216,337.585 182.5,339.5C 181.366,337.034 181.199,334.367 182,331.5C 182.513,332.527 183.013,333.527 183.5,334.5 Z"/></g>
<g><path style="opacity:0.856" fill="#929292" d="M 183.5,334.5 C 184.596,336.103 185.93,337.603 187.5,339C 185.866,339.494 184.199,339.66 182.5,339.5C 182.216,337.585 182.549,335.919 183.5,334.5 Z"/></g>
<g><path style="opacity:1" fill="#e9a92c" d="M 198.5,336.5 C 200.801,337.06 203.134,337.56 205.5,338C 262.832,338.5 320.166,338.667 377.5,338.5C 377.5,338.833 377.5,339.167 377.5,339.5C 319.166,339.667 260.832,339.5 202.5,339C 200.68,338.8 199.347,337.966 198.5,336.5 Z"/></g>
<g><path style="opacity:0.675" fill="#f6e681" d="M 471.5,335.5 C 472.833,337.167 474.167,338.833 475.5,340.5C 475.291,341.922 474.791,343.255 474,344.5C 473.007,341.526 472.174,338.526 471.5,335.5 Z"/></g>
<g><path style="opacity:1" fill="#f5c56a" d="M 39.5,385.5 C 36.8742,381.745 34.8742,377.578 33.5,373C 30.1832,372.502 26.8499,372.335 23.5,372.5C 23.7709,374.38 23.1042,375.713 21.5,376.5C 22.038,374.883 22.3713,373.216 22.5,371.5C 26.5537,370.816 30.5537,370.816 34.5,371.5C 36.568,376.038 38.2347,380.705 39.5,385.5 Z"/></g>
<g><path style="opacity:1" fill="#f5c265" d="M 103.5,376.5 C 97.3985,372.393 90.7318,371.393 83.5,373.5C 88.5084,370.504 93.8417,370.004 99.5,372C 101.635,372.876 102.969,374.376 103.5,376.5 Z"/></g>
<g><path style="opacity:0.996" fill="#898989" d="M 304.5,370.5 C 306.792,370.244 308.959,370.577 311,371.5C 314.505,381.35 318.005,391.183 321.5,401C 317.794,402.985 313.794,403.818 309.5,403.5C 309.5,402.5 309.5,401.5 309.5,400.5C 306.794,400.575 304.127,400.908 301.5,401.5C 301.5,402.5 301.5,403.5 301.5,404.5C 297.833,404.5 294.167,404.5 290.5,404.5C 292.704,393.685 295.537,383.019 299,372.5C 300.948,371.891 302.782,371.224 304.5,370.5 Z M 304.5,388.5 C 305.267,389.172 305.934,390.005 306.5,391C 304.939,391.188 304.272,390.355 304.5,388.5 Z"/></g>
<g><path style="opacity:0.995" fill="#858585" d="M 378.5,382.5 C 378.5,384.5 378.5,386.5 378.5,388.5C 378.095,396.905 373.762,401.905 365.5,403.5C 361.5,403.5 357.5,403.5 353.5,403.5C 353.5,393.5 353.5,383.5 353.5,373.5C 354.609,372.71 355.942,372.21 357.5,372C 362.167,371.333 366.833,371.333 371.5,372C 376.065,374.056 378.398,377.556 378.5,382.5 Z M 362.5,381.5 C 370.905,384.07 371.571,388.07 364.5,393.5C 362.577,389.971 361.911,385.971 362.5,381.5 Z"/></g>
<g><path style="opacity:0.996" fill="#868686" d="M 405.5,403.5 C 401.5,403.5 397.5,403.5 393.5,403.5C 393.5,393.5 393.5,383.5 393.5,373.5C 394.609,372.71 395.942,372.21 397.5,372C 414.926,369.092 421.759,376.259 418,393.5C 415.737,399.268 411.57,402.601 405.5,403.5 Z M 402.5,381.5 C 410.905,384.07 411.571,388.07 404.5,393.5C 402.577,389.971 401.911,385.971 402.5,381.5 Z"/></g>
<g><path style="opacity:0.995" fill="#8a8a8a" d="M 434.5,370.5 C 436.792,370.244 438.959,370.577 441,371.5C 444.505,381.35 448.005,391.183 451.5,401C 447.794,402.985 443.794,403.818 439.5,403.5C 439.5,402.5 439.5,401.5 439.5,400.5C 436.794,400.575 434.127,400.908 431.5,401.5C 431.5,402.5 431.5,403.5 431.5,404.5C 427.833,404.5 424.167,404.5 420.5,404.5C 422.704,393.685 425.537,383.019 429,372.5C 430.948,371.891 432.782,371.224 434.5,370.5 Z M 434.5,388.5 C 435.267,389.172 435.934,390.005 436.5,391C 434.939,391.188 434.272,390.355 434.5,388.5 Z"/></g>
<g><path style="opacity:0.999" fill="#828282" d="M 478.5,371.5 C 479.477,374.287 479.81,377.287 479.5,380.5C 477.901,380.232 476.568,380.566 475.5,381.5C 474.833,381.5 474.167,381.5 473.5,381.5C 472.5,381.5 471.5,381.5 470.5,381.5C 470.5,388.833 470.5,396.167 470.5,403.5C 467.5,403.5 464.5,403.5 461.5,403.5C 461.5,396.5 461.5,389.5 461.5,382.5C 458.5,382.5 455.5,382.5 452.5,382.5C 452.5,379.5 452.5,376.5 452.5,373.5C 461.12,372.305 469.786,371.638 478.5,371.5 Z"/></g>
<g><path style="opacity:1" fill="#fba507" d="M 39.5,385.5 C 39.5,385.833 39.5,386.167 39.5,386.5C 40.1314,391.657 41.1314,396.657 42.5,401.5C 39.5448,402.159 36.5448,402.492 33.5,402.5C 33.5,402.167 33.5,401.833 33.5,401.5C 32.1091,397.53 31.1091,393.53 30.5,389.5C 30.5,388.167 30.5,386.833 30.5,385.5C 29.1779,385.67 28.0113,385.337 27,384.5C 26.3076,385.025 25.8076,385.692 25.5,386.5C 26.7883,389.034 26.7883,391.534 25.5,394C 29.0894,393.71 30.5894,395.21 30,398.5C 26.9141,400.22 24.5808,399.553 23,396.5C 21.7308,397.905 21.2308,399.571 21.5,401.5C 20.0222,401.762 18.6888,401.429 17.5,400.5C 18.4328,396.571 18.7662,392.571 18.5,388.5C 20.8796,385.325 21.8796,381.658 21.5,377.5C 21.5,377.167 21.5,376.833 21.5,376.5C 23.1042,375.713 23.7709,374.38 23.5,372.5C 26.8499,372.335 30.1832,372.502 33.5,373C 34.8742,377.578 36.8742,381.745 39.5,385.5 Z"/></g>
<g><path style="opacity:1" fill="#f2c36c" d="M 54.5,371.5 C 52.4855,372.924 50.1522,373.59 47.5,373.5C 49.5145,372.076 51.8478,371.41 54.5,371.5 Z"/></g>
<g><path style="opacity:1" fill="#faa60c" d="M 54.5,371.5 C 56.5,371.5 58.5,371.5 60.5,371.5C 63.7929,373.483 67.1262,375.483 70.5,377.5C 70.7054,383.878 70.3721,390.211 69.5,396.5C 68.0937,396.973 67.427,397.973 67.5,399.5C 67.1583,400.338 66.4916,400.672 65.5,400.5C 59.5736,401.919 53.5736,402.919 47.5,403.5C 47.5,393.5 47.5,383.5 47.5,373.5C 50.1522,373.59 52.4855,372.924 54.5,371.5 Z M 61.5,383.5 C 64.0934,389.575 62.0934,392.909 55.5,393.5C 55.5,389.5 55.5,385.5 55.5,381.5C 57.8984,381.259 59.8984,381.926 61.5,383.5 Z"/></g>
<g><path style="opacity:0.99" fill="#888888" d="M 329.5,371.5 C 334.116,374.312 337.616,378.312 340,383.5C 340.499,379.848 340.665,376.182 340.5,372.5C 344.231,371.179 347.731,371.512 351,373.5C 351.667,383.167 351.667,392.833 351,402.5C 348.501,404.499 345.668,405.333 342.5,405C 339.333,400.5 336.167,396 333,391.5C 332.501,396.155 332.334,400.821 332.5,405.5C 329.167,405.5 325.833,405.5 322.5,405.5C 322.5,394.833 322.5,384.167 322.5,373.5C 325.067,373.279 327.401,372.612 329.5,371.5 Z"/></g>
<g><path style="opacity:0.985" fill="#8b8b8b" d="M 380.5,389.5 C 380.5,386.833 380.5,384.167 380.5,381.5C 380.5,378.5 380.5,375.5 380.5,372.5C 383.807,371.949 387.14,371.616 390.5,371.5C 391.596,382.133 391.763,392.8 391,403.5C 387.606,404.456 384.106,404.789 380.5,404.5C 380.5,399.5 380.5,394.5 380.5,389.5 Z"/></g>
<g><path style="opacity:0.482" fill="#c9c9c9" d="M 478.5,371.5 C 478.56,370.957 478.893,370.624 479.5,370.5C 480.489,374.107 480.823,377.774 480.5,381.5C 478.833,381.5 477.167,381.5 475.5,381.5C 476.568,380.566 477.901,380.232 479.5,380.5C 479.81,377.287 479.477,374.287 478.5,371.5 Z"/></g>
<g><path style="opacity:1" fill="#f2c262" d="M 60.5,371.5 C 65.182,371.498 68.5153,373.498 70.5,377.5C 67.1262,375.483 63.7929,373.483 60.5,371.5 Z"/></g>
<g><path style="opacity:1" fill="#fba713" d="M 148.5,372.5 C 152.833,372.5 157.167,372.5 161.5,372.5C 161.736,375.609 161.403,378.609 160.5,381.5C 158.833,381.5 157.167,381.5 155.5,381.5C 154.833,381.5 154.167,381.5 153.5,381.5C 152.508,388.648 152.175,395.981 152.5,403.5C 149.833,403.5 147.167,403.5 144.5,403.5C 144.824,396.646 144.491,389.979 143.5,383.5C 141.052,382.527 138.385,382.194 135.5,382.5C 135.5,379.5 135.5,376.5 135.5,373.5C 139.735,372.564 144.069,372.231 148.5,372.5 Z"/></g>
<g><path style="opacity:0.998" fill="#8d8d8d" d="M 274.5,372.5 C 278.182,372.335 281.848,372.501 285.5,373C 287.18,373.347 288.18,374.347 288.5,376C 287.033,382.839 283.033,385.506 276.5,384C 271.047,387.883 271.214,391.383 277,394.5C 279.654,393.615 282.154,392.782 284.5,392C 286.363,394.364 288.029,396.864 289.5,399.5C 283.883,405.374 277.217,406.874 269.5,404C 264.558,401.118 262.224,396.785 262.5,391C 262.715,382.301 266.715,376.134 274.5,372.5 Z"/></g>
<g><path style="opacity:1" fill="#fca504" d="M 127.5,374.5 C 127.833,374.5 128.167,374.5 128.5,374.5C 131.127,380.296 131.794,386.296 130.5,392.5C 128.774,392.185 127.107,392.019 125.5,392C 126.125,393.64 126.125,395.473 125.5,397.5C 121.563,397.719 117.897,397.219 114.5,396C 116.314,398.481 116.98,401.315 116.5,404.5C 113.833,404.5 111.167,404.5 108.5,404.5C 108.5,394.833 108.5,385.167 108.5,375.5C 114.789,374.628 121.122,374.295 127.5,374.5 Z M 123.5,387.5 C 117.976,391.659 115.976,389.992 117.5,382.5C 121.938,381.425 123.938,383.092 123.5,387.5 Z"/></g>
<g><path style="opacity:1" fill="#fba506" d="M 234.5,403.5 C 231.167,403.5 227.833,403.5 224.5,403.5C 224.5,398.167 224.5,392.833 224.5,387.5C 223.167,387.5 221.833,387.5 220.5,387.5C 218.381,384.694 218.048,381.694 219.5,378.5C 221.144,378.286 222.644,378.62 224,379.5C 224.5,379 225,378.5 225.5,378C 224.663,376.989 224.33,375.822 224.5,374.5C 227.833,374.5 231.167,374.5 234.5,374.5C 234.5,384.167 234.5,393.833 234.5,403.5 Z"/></g>
<g><path style="opacity:1" fill="#ecbe68" d="M 160.5,381.5 C 161.403,378.609 161.736,375.609 161.5,372.5C 157.167,372.5 152.833,372.5 148.5,372.5C 152.7,371.78 157.033,371.114 161.5,370.5C 161.833,372.333 162.167,374.167 162.5,376C 162.453,378.295 161.787,380.129 160.5,381.5 Z"/></g>
<g><path style="opacity:1" fill="#f6bc5a" d="M 83.5,373.5 C 81.8494,376.423 79.5161,378.757 76.5,380.5C 77.2815,376.596 79.6148,374.263 83.5,373.5 Z"/></g>
<g><path style="opacity:1" fill="#fba60a" d="M 103.5,376.5 C 103.749,379.002 104.083,381.502 104.5,384C 103.111,387.721 102.444,391.554 102.5,395.5C 101.178,395.67 100.011,395.337 99,394.5C 98.3162,395.784 98.4829,396.951 99.5,398C 98.5509,398.617 97.7175,398.451 97,397.5C 96.51,398.793 96.3433,400.127 96.5,401.5C 92.059,403.107 87.3923,403.774 82.5,403.5C 81.5084,403.672 80.8417,403.338 80.5,402.5C 79.1182,400.451 77.4516,398.785 75.5,397.5C 75.5,397.167 75.5,396.833 75.5,396.5C 75.5,391.833 75.5,387.167 75.5,382.5C 75.3284,381.508 75.6618,380.842 76.5,380.5C 79.5161,378.757 81.8494,376.423 83.5,373.5C 90.7318,371.393 97.3985,372.393 103.5,376.5 Z M 92.5,382.5 C 94.7733,385.222 95.1067,388.222 93.5,391.5C 90.0887,394.355 87.0887,394.022 84.5,390.5C 84.5,385.167 87.1667,382.5 92.5,382.5 Z"/></g>
<g><path style="opacity:0.263" fill="#f8da8f" d="M 184.5,381.5 C 186.202,379.2 186.868,376.533 186.5,373.5C 181.833,373.5 177.167,373.5 172.5,373.5C 176.899,372.809 181.399,372.142 186,371.5C 187.405,374.619 187.905,377.952 187.5,381.5C 186.5,381.5 185.5,381.5 184.5,381.5 Z"/></g>
<g><path style="opacity:1" fill="#f6b545" d="M 92.5,382.5 C 87.1667,382.5 84.5,385.167 84.5,390.5C 83.8476,389.551 83.5143,388.385 83.5,387C 84.0911,384.761 84.7578,382.594 85.5,380.5C 88.3878,379.99 90.7211,380.656 92.5,382.5 Z"/></g>
<g><path style="opacity:0.902" fill="#f2b548" d="M 235.5,403.5 C 235.167,403.5 234.833,403.5 234.5,403.5C 234.5,393.833 234.5,384.167 234.5,374.5C 231.167,374.5 227.833,374.5 224.5,374.5C 224.33,375.822 224.663,376.989 225.5,378C 225,378.5 224.5,379 224,379.5C 222.644,378.62 221.144,378.286 219.5,378.5C 223.365,373.015 228.698,371.015 235.5,372.5C 235.5,382.833 235.5,393.167 235.5,403.5 Z"/></g>
<g><path style="opacity:0.014" fill="#f8f8f8" d="M 380.5,381.5 C 380.5,384.167 380.5,386.833 380.5,389.5C 379.833,389.167 379.167,388.833 378.5,388.5C 378.5,386.5 378.5,384.5 378.5,382.5C 379.167,382.167 379.833,381.833 380.5,381.5 Z"/></g>
<g><path style="opacity:0.655" fill="#ffde96" d="M 92.5,382.5 C 94.9497,382.874 95.9497,384.374 95.5,387C 95.6932,389.008 95.0265,390.508 93.5,391.5C 95.1067,388.222 94.7733,385.222 92.5,382.5 Z"/></g>
<g><path style="opacity:0.42" fill="#fbd988" d="M 135.5,373.5 C 135.5,376.5 135.5,379.5 135.5,382.5C 138.385,382.194 141.052,382.527 143.5,383.5C 140.5,383.5 137.5,383.5 134.5,383.5C 134.187,379.958 134.521,376.625 135.5,373.5 Z"/></g>
<g><path style="opacity:1" fill="#f1c561" d="M 219.5,378.5 C 218.048,381.694 218.381,384.694 220.5,387.5C 214.361,385.094 214.027,382.094 219.5,378.5 Z"/></g>
<g><path style="opacity:1" fill="#f1bb53" d="M 70.5,377.5 C 72.0468,379.807 72.7135,382.473 72.5,385.5C 72.8673,389.653 71.8673,393.32 69.5,396.5C 70.3721,390.211 70.7054,383.878 70.5,377.5 Z"/></g>
<g><path style="opacity:0.407" fill="#cccccc" d="M 452.5,382.5 C 455.5,382.5 458.5,382.5 461.5,382.5C 461.5,389.5 461.5,396.5 461.5,403.5C 461.5,403.833 461.5,404.167 461.5,404.5C 460.509,397.687 460.175,390.687 460.5,383.5C 457.615,383.806 454.948,383.473 452.5,382.5 Z"/></g>
<g><path style="opacity:1" fill="#f5bc5b" d="M 21.5,377.5 C 21.8796,381.658 20.8796,385.325 18.5,388.5C 18.9257,384.573 19.9257,380.907 21.5,377.5 Z"/></g>
<g><path style="opacity:0.424" fill="#fdd283" d="M 174.5,382.5 C 175.552,384.256 177.219,384.923 179.5,384.5C 177.735,385.461 175.735,385.795 173.5,385.5C 173.263,384.209 173.596,383.209 174.5,382.5 Z"/></g>
<g><path style="opacity:0.046" fill="#efefef" d="M 362.5,381.5 C 361.911,385.971 362.577,389.971 364.5,393.5C 363.791,394.404 362.791,394.737 361.5,394.5C 361.182,389.968 361.515,385.634 362.5,381.5 Z"/></g>
<g><path style="opacity:0.046" fill="#efefef" d="M 402.5,381.5 C 401.911,385.971 402.577,389.971 404.5,393.5C 403.791,394.404 402.791,394.737 401.5,394.5C 401.182,389.968 401.515,385.634 402.5,381.5 Z"/></g>
<g><path style="opacity:1" fill="#f9a613" d="M 169.5,373.5 C 170.5,373.5 171.5,373.5 172.5,373.5C 177.167,373.5 181.833,373.5 186.5,373.5C 186.868,376.533 186.202,379.2 184.5,381.5C 181.236,382.324 177.902,382.658 174.5,382.5C 173.596,383.209 173.263,384.209 173.5,385.5C 175.735,385.795 177.735,385.461 179.5,384.5C 180.5,384.5 181.5,384.5 182.5,384.5C 183.5,384.5 184.5,384.5 185.5,384.5C 185.5,387.167 185.5,389.833 185.5,392.5C 181.818,392.335 178.152,392.501 174.5,393C 173.663,394.011 173.33,395.178 173.5,396.5C 175.735,396.795 177.735,396.461 179.5,395.5C 179.833,395.5 180.167,395.5 180.5,395.5C 182.5,395.5 184.5,395.5 186.5,395.5C 186.5,398.167 186.5,400.833 186.5,403.5C 184.265,403.205 182.265,403.539 180.5,404.5C 179.833,404.5 179.167,404.5 178.5,404.5C 174.167,404.5 169.833,404.5 165.5,404.5C 165.334,394.828 165.5,385.161 166,375.5C 167.302,374.915 168.469,374.249 169.5,373.5 Z"/></g>
<g><path style="opacity:1" fill="#f5b94c" d="M 103.5,376.5 C 105.047,378.807 105.713,381.473 105.5,384.5C 105.867,388.653 104.867,392.32 102.5,395.5C 102.444,391.554 103.111,387.721 104.5,384C 104.083,381.502 103.749,379.002 103.5,376.5 Z"/></g>
<g><path style="opacity:0.711" fill="#a8a8a8" d="M 473.5,381.5 C 471.586,388.892 470.919,396.559 471.5,404.5C 468.167,404.5 464.833,404.5 461.5,404.5C 461.5,404.167 461.5,403.833 461.5,403.5C 464.5,403.5 467.5,403.5 470.5,403.5C 470.5,396.167 470.5,388.833 470.5,381.5C 471.5,381.5 472.5,381.5 473.5,381.5 Z"/></g>
<g><path style="opacity:1" fill="#f2c668" d="M 75.5,382.5 C 75.5,387.167 75.5,391.833 75.5,396.5C 73.0456,391.865 73.0456,387.198 75.5,382.5 Z"/></g>
<g><path style="opacity:1" fill="#f8ad2e" d="M 123.5,387.5 C 123.5,388.5 123.5,389.5 123.5,390.5C 122.448,390.351 121.448,390.517 120.5,391C 121.956,391.423 122.456,392.256 122,393.5C 119.959,392.577 117.792,392.244 115.5,392.5C 115.788,389.195 114.788,386.362 112.5,384C 113.211,382.745 114.044,381.579 115,380.5C 118.116,380.535 121.282,380.868 124.5,381.5C 124.833,382.5 125.167,383.5 125.5,384.5C 125.36,386.03 124.693,387.03 123.5,387.5 Z M 123.5,387.5 C 123.938,383.092 121.938,381.425 117.5,382.5C 115.976,389.992 117.976,391.659 123.5,387.5 Z"/></g>
<g><path style="opacity:1" fill="#eab859" d="M 169.5,373.5 C 168.469,374.249 167.302,374.915 166,375.5C 165.5,385.161 165.334,394.828 165.5,404.5C 169.833,404.5 174.167,404.5 178.5,404.5C 174.101,405.191 169.601,405.858 165,406.5C 164.333,395.833 164.333,385.167 165,374.5C 166.356,373.62 167.856,373.286 169.5,373.5 Z"/></g>
<g><path style="opacity:1" fill="#f6bf61" d="M 127.5,374.5 C 121.122,374.295 114.789,374.628 108.5,375.5C 108.5,385.167 108.5,394.833 108.5,404.5C 111.167,404.5 113.833,404.5 116.5,404.5C 116.98,401.315 116.314,398.481 114.5,396C 117.897,397.219 121.563,397.719 125.5,397.5C 123.162,399.04 120.495,399.706 117.5,399.5C 117.5,401.5 117.5,403.5 117.5,405.5C 114.14,405.616 110.807,405.949 107.5,406.5C 106.404,395.867 106.237,385.2 107,374.5C 111.401,373.47 115.901,372.803 120.5,372.5C 123.205,372.316 125.538,372.983 127.5,374.5 Z"/></g>
<g><path style="opacity:0.965" fill="#f8c769" d="M 61.5,383.5 C 62.7479,384.334 63.4146,385.667 63.5,387.5C 63.1741,392.974 60.5074,394.974 55.5,393.5C 62.0934,392.909 64.0934,389.575 61.5,383.5 Z"/></g>
<g><path style="opacity:1" fill="#f4bb4c" d="M 128.5,374.5 C 133.048,378.044 134.548,382.71 133,388.5C 132.084,392.908 129.584,395.908 125.5,397.5C 126.125,395.473 126.125,393.64 125.5,392C 127.107,392.019 128.774,392.185 130.5,392.5C 131.794,386.296 131.127,380.296 128.5,374.5 Z"/></g>
<g><path style="opacity:0.935" fill="#eeb243" d="M 153.5,381.5 C 153.5,388.833 153.5,396.167 153.5,403.5C 150.437,404.201 147.27,404.868 144,405.5C 143.5,398.174 143.334,390.841 143.5,383.5C 144.491,389.979 144.824,396.646 144.5,403.5C 147.167,403.5 149.833,403.5 152.5,403.5C 152.175,395.981 152.508,388.648 153.5,381.5 Z"/></g>
<g><path style="opacity:0.26" fill="#ffe9b4" d="M 153.5,381.5 C 154.167,381.5 154.833,381.5 155.5,381.5C 154.864,388.933 154.198,396.266 153.5,403.5C 153.5,396.167 153.5,388.833 153.5,381.5 Z"/></g>
<g><path style="opacity:0.7" fill="#f9ca6e" d="M 220.5,387.5 C 221.833,387.5 223.167,387.5 224.5,387.5C 224.5,392.833 224.5,398.167 224.5,403.5C 227.833,403.5 231.167,403.5 234.5,403.5C 234.833,403.5 235.167,403.5 235.5,403.5C 231.702,404.483 227.702,404.817 223.5,404.5C 223.5,399.167 223.5,393.833 223.5,388.5C 222.209,388.737 221.209,388.404 220.5,387.5 Z"/></g>
<g><path style="opacity:1" fill="#eeb346" d="M 39.5,386.5 C 41.4053,390.216 42.7387,394.216 43.5,398.5C 43.7373,399.791 43.404,400.791 42.5,401.5C 41.1314,396.657 40.1314,391.657 39.5,386.5 Z"/></g>
<g><path style="opacity:0.616" fill="#facc6f" d="M 182.5,384.5 C 183.568,383.566 184.901,383.232 186.5,383.5C 186.5,386.833 186.5,390.167 186.5,393.5C 182.818,393.335 179.152,393.501 175.5,394C 175.167,394.333 174.833,394.667 174.5,395C 176.134,395.494 177.801,395.66 179.5,395.5C 177.735,396.461 175.735,396.795 173.5,396.5C 173.33,395.178 173.663,394.011 174.5,393C 178.152,392.501 181.818,392.335 185.5,392.5C 185.5,389.833 185.5,387.167 185.5,384.5C 184.5,384.5 183.5,384.5 182.5,384.5 Z"/></g>
<g><path style="opacity:0.012" fill="#fbe99b" d="M 69.5,396.5 C 69.573,398.027 68.9063,399.027 67.5,399.5C 67.427,397.973 68.0937,396.973 69.5,396.5 Z"/></g>
<g><path style="opacity:1" fill="#fbca7c" d="M 75.5,397.5 C 77.4516,398.785 79.1182,400.451 80.5,402.5C 77.856,401.856 76.1894,400.189 75.5,397.5 Z"/></g>
<g><path style="opacity:1" fill="#f5ad27" d="M 30.5,389.5 C 31.1091,393.53 32.1091,397.53 33.5,401.5C 30.8707,400.286 28.204,400.286 25.5,401.5C 22.4954,403.299 19.162,403.966 15.5,403.5C 15.5,402.167 15.5,400.833 15.5,399.5C 15.9257,395.573 16.9257,391.907 18.5,388.5C 18.7662,392.571 18.4328,396.571 17.5,400.5C 18.6888,401.429 20.0222,401.762 21.5,401.5C 21.2308,399.571 21.7308,397.905 23,396.5C 24.5808,399.553 26.9141,400.22 30,398.5C 30.5894,395.21 29.0894,393.71 25.5,394C 26.7883,391.534 26.7883,389.034 25.5,386.5C 25.8076,385.692 26.3076,385.025 27,384.5C 28.0113,385.337 29.1779,385.67 30.5,385.5C 30.5,386.833 30.5,388.167 30.5,389.5 Z"/></g>
<g><path style="opacity:1" fill="#fdea9b" d="M 30.5,389.5 C 30.5,390.5 30.5,391.5 30.5,392.5C 29.5,392.5 28.5,392.5 27.5,392.5C 27.2148,390.712 27.5481,389.045 28.5,387.5C 29.1818,388.243 29.8485,388.909 30.5,389.5 Z"/></g>
<g><path style="opacity:0.914" fill="#f5cd83" d="M 43.5,398.5 C 44.4345,399.568 44.7678,400.901 44.5,402.5C 40.6724,403.498 37.0057,403.498 33.5,402.5C 36.5448,402.492 39.5448,402.159 42.5,401.5C 43.404,400.791 43.7373,399.791 43.5,398.5 Z"/></g>
<g><path style="opacity:1" fill="#f1be5b" d="M 47.5,373.5 C 47.5,383.5 47.5,393.5 47.5,403.5C 53.5736,402.919 59.5736,401.919 65.5,400.5C 63.7786,402.694 61.4453,403.861 58.5,404C 54.5138,404.499 50.5138,404.666 46.5,404.5C 45.4733,394.856 45.3067,385.189 46,375.5C 46.2784,374.584 46.7784,373.918 47.5,373.5 Z"/></g>
<g><path style="opacity:0.914" fill="#e9c373" d="M 15.5,399.5 C 15.5,400.833 15.5,402.167 15.5,403.5C 19.162,403.966 22.4954,403.299 25.5,401.5C 25.5858,402.496 25.2524,403.329 24.5,404C 21.1832,404.498 17.8499,404.665 14.5,404.5C 14.2155,402.585 14.5489,400.919 15.5,399.5 Z"/></g>
<g><path style="opacity:0.878" fill="#f5c269" d="M 102.5,395.5 C 98.0282,403.738 91.3616,406.405 82.5,403.5C 87.3923,403.774 92.059,403.107 96.5,401.5C 96.3433,400.127 96.51,398.793 97,397.5C 97.7175,398.451 98.5509,398.617 99.5,398C 98.4829,396.951 98.3162,395.784 99,394.5C 100.011,395.337 101.178,395.67 102.5,395.5 Z"/></g>
<g><path style="opacity:0.506" fill="#fadfa1" d="M 180.5,395.5 C 182.607,394.532 184.941,394.198 187.5,394.5C 187.5,397.833 187.5,401.167 187.5,404.5C 185.167,404.5 182.833,404.5 180.5,404.5C 182.265,403.539 184.265,403.205 186.5,403.5C 186.5,400.833 186.5,398.167 186.5,395.5C 184.5,395.5 182.5,395.5 180.5,395.5 Z"/></g>
<g><path style="opacity:0.778" fill="#aeaeae" d="M 353.5,373.5 C 353.5,383.5 353.5,393.5 353.5,403.5C 357.5,403.5 361.5,403.5 365.5,403.5C 361.366,404.485 357.032,404.818 352.5,404.5C 352.172,393.986 352.506,383.653 353.5,373.5 Z"/></g>
<g><path style="opacity:0.786" fill="#afafaf" d="M 393.5,373.5 C 393.5,383.5 393.5,393.5 393.5,403.5C 397.5,403.5 401.5,403.5 405.5,403.5C 401.366,404.485 397.032,404.818 392.5,404.5C 392.172,393.986 392.506,383.653 393.5,373.5 Z"/></g>
</svg>
