<?xml version="1.0" encoding="UTF-8"?>
<!DOCTYPE svg PUBLIC "-//W3C//DTD SVG 1.1//EN" "http://www.w3.org/Graphics/SVG/1.1/DTD/svg11.dtd">
<svg xmlns="http://www.w3.org/2000/svg" version="1.1" width="100px" height="100px" style="shape-rendering:geometricPrecision; text-rendering:geometricPrecision; image-rendering:optimizeQuality; fill-rule:evenodd; clip-rule:evenodd" xmlns:xlink="http://www.w3.org/1999/xlink">
<g><path style="opacity:0.988" fill="#0c1a29" d="M 35.5,8.5 C 46.2449,8.07123 56.9115,8.57123 67.5,10C 73.6136,12.3868 76.6136,16.8868 76.5,23.5C 68.3888,23.0648 60.3888,23.5648 52.5,25C 50.9963,26.4907 50.1629,28.324 50,30.5C 49.3333,39.1667 49.3333,47.8333 50,56.5C 50.3095,57.7659 50.8095,58.9326 51.5,60C 54.4192,60.5516 57.0859,59.8849 59.5,58C 65.1569,57.5006 70.8236,57.3339 76.5,57.5C 76.6663,64.5079 76.4996,71.5079 76,78.5C 74.6502,83.1849 71.8168,86.6849 67.5,89C 55.5,91 43.5,91 31.5,89C 27.1832,86.6849 24.3498,83.1849 23,78.5C 22.3333,59.1667 22.3333,39.8333 23,20.5C 25.1197,14.2106 29.2864,10.2106 35.5,8.5 Z M 42.5,68.5 C 47.1785,68.3342 51.8452,68.5008 56.5,69C 57.8333,70 57.8333,71 56.5,72C 51.8333,72.6667 47.1667,72.6667 42.5,72C 41.3157,70.8545 41.3157,69.6879 42.5,68.5 Z"/></g>
<g><path style="opacity:0.963" fill="#0c1a29" d="M 56.5,28.5 C 65.8393,28.3335 75.1726,28.5002 84.5,29C 85.1258,29.7504 85.6258,30.5838 86,31.5C 86.6667,37.8333 86.6667,44.1667 86,50.5C 85.6258,51.4162 85.1258,52.2496 84.5,53C 74.4672,53.2417 64.4672,53.7417 54.5,54.5C 54.3336,46.4931 54.5003,38.4931 55,30.5C 55.7172,29.9558 56.2172,29.2891 56.5,28.5 Z"/></g>
</svg>
